<svg version="1.1" xmlns="http://www.w3.org/2000/svg" viewBox="0 0 1440.7872215396835 508.00613443219845" width="2881.574443079367" height="1016.0122688643969">
  <!-- svg-source:excalidraw -->
  
  <defs>
    <style class="style-fonts">
      @font-face {
        font-family: "Virgil";
        src: url("https://excalidraw.com/Virgil.woff2");
      }
      @font-face {
        font-family: "Cascadia";
        src: url("https://excalidraw.com/Cascadia.woff2");
      }
    </style>
  </defs>
  <rect x="0" y="0" width="1440.7872215396835" height="508.00613443219845" fill="#ffffff"></rect><g stroke-linecap="round" transform="translate(456.88922147343396 20.429299889787643) rotate(0 239.60502406529054 238.7884172712054)"><path d="M0 0 C0 0, 0 0, 0 0 M0 0 C0 0, 0 0, 0 0 M0.41 6.84 C1.96 4.99, 1.98 3.35, 4.99 0.27 M-0.43 6.6 C1.34 4.41, 2.68 2.78, 4.65 0.33 M-0.16 11.68 C2.23 8.15, 7.75 4.64, 10.07 0.63 M0.48 12.74 C3.3 9.3, 4.88 6.36, 11.2 -0.51 M1.86 17.23 C4.38 12.73, 10.24 5.05, 15.64 1.63 M-0.74 18.8 C5.6 12.82, 10.58 6.65, 15.36 0.56 M-0.41 22.12 C4.18 17.92, 11.78 12.59, 22.38 1.29 M0.41 23.62 C7.34 17.48, 11.92 9.71, 21.58 0.85 M0.66 30.88 C8.34 19.19, 18.26 6.5, 26.04 1.65 M-0.74 30.42 C6.47 23.25, 12.65 16.8, 25.73 1.11 M-1.02 36.06 C10.03 26.49, 22.25 13.57, 33.04 -0.04 M-1.05 37.84 C9.39 26.13, 18.9 14.92, 32.23 -1.08 M-1.6 42.61 C15.37 28.84, 26.89 12.14, 36.93 1.16 M-0.27 43.25 C14.04 26.56, 29.12 9.69, 36.08 -0.51 M0.52 48.4 C15.43 30.11, 29.38 15.51, 41.33 -1.91 M0.08 49.88 C11.69 35.2, 23 22.16, 43.27 0.49 M-0.99 53.2 C14.79 37.5, 29.53 18.67, 48.45 -0.24 M0.43 54.44 C11.25 41.86, 21.21 30.52, 46.57 0.95 M0.15 58.96 C14.23 46.73, 25.27 31.69, 54.08 -0.42 M-0.96 60 C16.59 40.62, 33.92 21.09, 53.99 0.14 M1.14 66.8 C14.62 49.81, 28.42 33.82, 60.09 -0.34 M-0.27 67.59 C18.91 43.24, 38.92 22.14, 58.63 0.44 M1.88 73.48 C20.6 48.7, 45.61 19.6, 65.46 -1.02 M1.03 73.37 C16.26 55.3, 30.03 37.43, 63.03 0.17 M0.78 79.95 C14 59.49, 32.37 41.78, 70.73 1.71 M-0.68 79.72 C17.46 59.27, 35.08 37.69, 69.05 0.57 M1.08 84.3 C18.62 63.32, 38.7 38.61, 73.04 1.43 M0.57 84.87 C15.02 67.35, 31.39 51.7, 74.28 0.55 M-0.65 90.06 C24.78 61.08, 50.61 31.93, 78.61 1.39 M0.2 91.81 C25.05 63.08, 48.55 34.19, 79.89 -0.34 M-0.15 99.14 C32.35 61.72, 63.15 26.63, 85.75 -1.27 M-1.17 97.83 C30.79 63.1, 60.8 26.64, 84.99 -1.09 M-1.72 104.4 C26.05 76.01, 48.87 46.66, 89.36 0.78 M-0.63 103.75 C33.59 65.99, 66.32 28.36, 90.55 -0.3 M1.61 110.1 C28.27 78.01, 58.51 41.45, 95.91 1.27 M0.26 108.97 C22.49 84.55, 45.55 57.43, 95.72 0.61 M-1.62 116.9 C18.55 89.37, 42.14 68.89, 99.97 0.61 M1.12 115.14 C30.67 82.24, 59.03 49.04, 99.73 0.38 M-0.79 122.14 C36.67 79.74, 71.9 39.96, 107.19 -1.9 M0.67 121 C34.57 83.99, 67.57 43.91, 106.31 -1.32 M-0.83 128.83 C39.56 82.5, 77.02 39.84, 110.81 0.23 M0.41 128.02 C33.79 89.8, 66.17 50.64, 111.46 -0.92 M1.53 134.12 C44.53 85.3, 88.45 36, 118 1.63 M-0.19 133.53 C28.77 99.26, 59.15 63.96, 115.28 0.6 M1.54 141.84 C32.58 102.54, 62.18 65.53, 121.64 1.6 M-0.54 139.84 C45.14 85, 92.61 32.13, 121.05 0.86 M0.81 147.49 C41.63 100.01, 81.95 53.99, 128.1 0.62 M0.77 145.87 C35.88 103.59, 72.11 61.62, 126.43 1.24 M-0.21 150.68 C33.06 114.43, 65.13 78.86, 131.68 1.18 M-0.12 152.06 C41.94 105.3, 81.77 58.72, 133.09 0.41 M-0.01 159.09 C49.19 98.98, 101.57 38.25, 138.5 0.7 M-0.65 159.67 C53.29 96.59, 106.23 35.33, 136.99 -0.43 M0.14 163.32 C46.01 112.31, 89.24 63.95, 143.13 -1.22 M-0.7 164.84 C56.56 101.86, 112.99 37.57, 143.66 0.27 M-0.48 170.31 C41.2 119.74, 87.92 69.31, 146.98 1.36 M0.31 170.5 C48.57 113.83, 98.15 57.82, 147.88 0.95 M0.36 175.14 C35.6 135.91, 71.79 93.9, 154.1 -0.59 M0.24 176.49 C51.29 119.24, 101.34 60.71, 153.99 0.47 M0.72 182.88 C54.63 122.12, 108.57 57.6, 157.4 1 M0.33 182.96 C41.29 136.32, 80.36 90.94, 159.46 -0.38 M0.65 188.32 C48.64 132.34, 98.98 77.49, 165.63 -0.1 M0.42 189.29 C34.02 151.7, 67.64 113.28, 164.6 -0.82 M1.61 193.44 C56.12 130.04, 109.87 69.42, 169.54 0.35 M-0.23 195.35 C41.14 149.56, 82.33 102.66, 169.85 -0.03 M-0.55 201.51 C54.88 138.06, 110.25 73.33, 175.02 -0.44 M-0.82 201.22 C41.6 154.85, 83.18 106.88, 175.37 -0.68 M-0.01 207.31 C66.23 129.46, 132.99 51.11, 179.58 -1.03 M-0.05 207.47 C66.5 131.38, 132.55 54.82, 179.98 0.93 M-0.78 214.56 C48.36 159.42, 96.04 103.4, 185.51 -0.22 M-0.29 213.87 C43.96 164.05, 86.23 114.53, 185.68 0.11 M-1.18 219.82 C66.6 141.23, 138.21 61.7, 189.75 1.46 M-0.63 219.67 C53.55 158.64, 106.41 96.05, 190.15 -0.15 M-0.74 225.66 C77.11 138.23, 153.94 49.51, 196.55 0.75 M0.45 224.81 C71.68 143.42, 142.59 61.36, 195.95 -0.8 M-0.78 232.47 C57.18 164.25, 115.28 99.17, 201.52 -0.76 M-0.47 231.35 C74.82 144.91, 150.9 58.29, 201.55 -0.01 M1.37 237.97 C69.08 156.4, 138.4 78.75, 207.18 -1.17 M0.97 237.38 C75.05 148.8, 151.23 61.51, 207.49 0 M-0.09 244.84 C58.47 175.3, 115.17 107.15, 212.94 0.64 M-0.51 243.78 C49.26 188.66, 96.92 134.39, 211.97 -0.25 M0.52 251.27 C48.32 193.67, 99.24 136.23, 218.89 0.87 M-0.22 250.9 C77.31 161.49, 155.13 71.78, 218.2 -0.24 M-0.06 255.02 C88.2 156.29, 175.39 54.53, 221.9 1.2 M-0.15 255.89 C83.47 157.76, 167.67 61.2, 223.04 0.24 M-0.87 262.34 C81.49 166.22, 161.9 71.17, 227.31 -1.28 M-0.37 262.42 C49 206.71, 97.04 150.6, 228.49 -0.14 M0.66 268.22 C53.57 205.73, 107.9 143.6, 233.95 -1.23 M0.71 267.83 C81.87 173.23, 162.49 78.87, 233.15 -0.36 M-0.36 274.63 C78.36 182.72, 157.71 92.11, 237.73 0.44 M-0.56 273.81 C88.52 171.51, 177.38 68.59, 237.58 0.8 M-0.28 281.36 C77.62 194.13, 153.4 107.45, 243.52 0.6 M-0.18 280.3 C52.03 221.28, 104.59 159.44, 244.23 -0.1 M-0.54 287.2 C69.65 205.72, 139.69 127.43, 248.9 0.2 M-0.38 285.82 C66.01 211.81, 130.58 137.34, 248.73 0.62 M-1.01 293.6 C73.48 208.78, 146 125.24, 255.01 0.13 M0.29 292.74 C59.41 226.24, 117.1 158.83, 253.93 0.13 M0.64 298.43 C73.98 217.53, 144.14 135.24, 259.93 1.28 M0.11 298.89 C67.02 221.23, 133.88 143.64, 259.02 0.7 M0.2 305.49 C94.33 197.65, 186.3 91.22, 264.97 0.14 M0.32 304.26 C55.77 240.28, 110.09 177.12, 265.54 -0.61 M-0.49 311.41 C86.43 211.08, 173.08 111.23, 270.28 0.6 M-0.17 310.67 C86.65 210.48, 173.03 110.96, 270.59 0.29 M0.67 316.11 C57.7 249.64, 115.4 182.61, 276.64 0.04 M-0.31 316.55 C92.89 210.69, 186.05 104.08, 276.07 -0.03 M0.82 323.73 C98.29 207.85, 197.81 93.1, 281.29 1.17 M0.42 323.2 C103.39 205.87, 205.86 86.86, 280.67 0.7 M-0.06 328.12 C93.37 221.71, 184.14 117.37, 286.26 0.7 M-0.1 328.82 C107.61 204.26, 214.97 79.7, 286.76 -0.49 M0.47 334.73 C69.47 257.32, 136.37 180.89, 291.74 0.84 M0.17 335.04 C83.82 240.76, 167.49 144.9, 291.61 -0.14 M0.52 341.82 C79.63 251.48, 157.31 162.57, 296.27 0.2 M0.2 341.97 C73.58 256.54, 147.83 170.91, 297.34 -0.19 M1.02 348.23 C107.86 224.05, 215.25 99.89, 302.24 0.95 M-0.23 347.06 C102.52 228.76, 205.53 111.1, 302.18 -0.28 M0.53 352.88 C105.61 233.17, 210.87 110.85, 308.34 0.06 M-0.29 353.55 C74.69 267.28, 151.35 179.54, 307.29 -0.58 M0.7 359.62 C75.87 269.82, 154.63 181.27, 313.01 0.2 M0.39 358.94 C111.96 229.89, 222.84 102.44, 312.86 -0.08 M-0.07 366.07 C64.3 291.77, 129.66 215.9, 318.37 -0.85 M0 366.03 C75.47 279.83, 149.96 193.04, 318.47 -0.35 M0.51 372.09 C119.62 233.4, 239.75 96.62, 323.94 0.34 M-0.52 371.89 C108.03 249.37, 214.86 125.7, 322.91 0.04 M0.59 377.56 C74.77 292.92, 149.5 206.02, 329.33 -0.71 M0.14 377.4 C80.51 284.04, 161.78 191.23, 328.83 -0.22 M-0.27 383.93 C103.32 267.69, 206.42 149.34, 333.15 0.63 M-0.27 383.84 C76.08 296.35, 153.34 207.03, 333.83 0.42 M0.71 389.9 C103.45 269.43, 207.06 149.93, 338.73 -0.14 M0.7 389.76 C95.06 283.07, 187.86 175.33, 339.54 -0.11 M0.29 396.78 C132.59 243.99, 265 92.18, 344.9 -0.06 M-0.16 396.51 C134.2 240.91, 268.34 86.47, 344.33 -0.33 M-0.71 402.46 C97.82 288.48, 196.82 174.97, 349.63 0.59 M-0.33 402.53 C102.38 284.05, 205.4 165.54, 349.17 0.68 M-0.29 407.81 C89.86 305.27, 177.01 204.1, 355.18 -0.25 M0.54 408.35 C109.04 280.42, 219.66 154.15, 355.3 0.27 M0.25 415.02 C118.58 279.65, 235.72 144.69, 360.42 0 M-0.06 414.4 C86.22 314.67, 173.03 214.73, 360.35 0.45 M-0.61 420.79 C103.42 302.04, 207.46 182.46, 366.14 -0.61 M0.03 420.84 C97.21 309.77, 194.09 198.35, 365.74 -0.24 M0.47 427.47 C122.27 286.55, 245.54 146.43, 370.47 -0.09 M-0.23 426.96 C82.03 332.43, 163.45 238.97, 371.11 0.45 M-0.73 433.47 C77.81 342.88, 156.85 252.45, 376.47 -0.76 M-0.23 433.03 C110.65 305.65, 220.13 179.82, 375.99 -0.42 M0.46 438.41 C125.13 296.93, 250.32 154.2, 381.15 0.83 M0.18 438.54 C118.47 305.03, 234.26 170.78, 381.44 0.23 M0.27 445.31 C101.58 329.09, 203.71 212.03, 386.22 -0.84 M-0.18 445.36 C79.58 354.57, 158.09 263.87, 386.91 0.21 M-0.2 451.41 C107.61 327.4, 216.03 203.42, 391.98 -0.48 M-0.32 451.28 C134.44 297.92, 268.55 143.07, 391.86 0.04 M0.52 457.69 C87.64 354.09, 177.95 250.76, 398.4 0.02 M-0.22 457.36 C148.38 284.17, 297.97 112.7, 397.47 -0.35 M-0.18 464.07 C110.22 337.88, 220.89 211.36, 402.24 0.19 M0.06 463.37 C136.69 303.97, 275.44 144.89, 402.61 -0.01 M-0.51 469.81 C82.25 373.12, 165.39 276.92, 407.76 0.57 M-0.19 469.24 C145.53 302.34, 291.31 134.3, 407.98 -0.27 M-0.4 475.67 C138.12 315.38, 277.46 154.74, 412.56 0.11 M0.07 475.89 C120.32 339.41, 239.9 202.12, 412.87 0.05 M1.58 479.67 C100.5 363.5, 199.17 249.31, 418.38 -1 M2.53 478.83 C111.67 353.31, 220.34 228.01, 419.28 -0.22 M7.46 479.1 C101.47 368.84, 194.94 259.38, 423.31 0.8 M7.67 479.18 C145.4 319.57, 282.4 161.37, 423.92 0.11 M12.31 479.45 C138.02 335.27, 261.7 192, 429.33 -0.67 M13.32 479.33 C169.67 300.21, 325.77 120.63, 429.51 -0.21 M18.71 479.53 C113.6 370.71, 208.68 262.95, 434.6 0.01 M17.76 479.46 C177.12 297.15, 337.11 112.55, 434.38 -0.11 M22.83 480.46 C143.18 340.07, 262.3 203.52, 439.39 0.27 M23.09 479.56 C168.57 313, 313.57 146.24, 439.77 -0.34 M29.08 479.22 C176.86 307.93, 325.38 137.59, 444.73 -0.25 M28.86 479.68 C167.85 315.69, 309.01 153.28, 445.01 -0.2 M32.92 479.82 C129.74 366.15, 228.1 253.99, 450.33 -0.06 M33.8 479.31 C117.18 381.73, 202.42 283.5, 450.86 -0.09 M38.9 479.31 C189.62 307.65, 339.45 135.37, 456.5 -0.1 M39.26 478.88 C142 359.54, 246.93 239.04, 455.46 0.13 M44.95 479.53 C172.33 334.38, 299.2 187.24, 462.04 -0.86 M44.37 479.73 C183.47 318.66, 322.5 157.75, 461.7 -0.61 M49.88 478.78 C183.13 328.91, 314.62 176.63, 466.1 -0.24 M50.2 479.21 C191.54 315.27, 335.09 149.81, 466.74 0.25 M55.29 480.32 C219.87 288.17, 387.08 95.94, 471.9 0.46 M54.9 479.48 C176.72 336.13, 300.4 193.92, 471.11 0.74 M60.28 479.28 C161.02 360.93, 263.12 244.9, 477.45 -0.29 M60.24 479.44 C148.07 375.54, 236.79 272.6, 477.16 0.18 M64.88 479.15 C206.8 317.42, 347.58 156.66, 480.93 1.99 M65.2 479.5 C155.81 373.35, 246.73 268.79, 480.66 1.73 M71.28 478.69 C186.46 347.54, 300.03 215.88, 481.26 7.09 M70.86 479.07 C161.44 374.28, 252.42 270.54, 481.41 7.4 M75.98 478.83 C191.8 349.6, 306.21 219.27, 481.34 14.28 M76.41 479.79 C236.58 292.41, 398.29 106.14, 480.73 13.84 M82.23 479.15 C198.74 344.48, 316.37 208.22, 481.98 19.75 M81.66 479.03 C199.24 341.54, 317.94 204.73, 481.47 19.47 M87.42 480.02 C212.33 335.05, 339.11 190.01, 481.22 25.35 M87.01 479.45 C206.37 342.67, 325.28 205.55, 480.73 25.61 M92.25 479.06 C207.94 344.47, 324.64 208.96, 481.27 32.63 M91.98 479.35 C226.93 327.08, 359.29 174.33, 480.53 32.27 M97.77 479.64 C198.89 361.44, 303.34 242.79, 480.81 38.03 M97.59 479.83 C235.28 319.54, 375.4 159.08, 481.43 37.64 M103.37 479.44 C189.86 377.73, 276.46 277.99, 480.16 44 M103.27 479.13 C187.37 379.72, 272.12 281.63, 481.11 44.64 M108.56 478.86 C213.72 355.12, 320.5 232.89, 481.72 49.82 M107.66 479.79 C251.71 315.65, 395.15 150.45, 480.91 49.62 M114.19 479.18 C243.23 330.83, 371.84 182.74, 480.67 57 M113.52 478.96 C252.7 317.31, 393.56 155.98, 481.1 56.74 M117.86 479.87 C211.56 373.41, 302.23 267.86, 481.43 63.22 M118.88 479.61 C239.67 339.63, 361.52 198.88, 481.11 62.64 M124.67 478.23 C217.05 372.17, 309.68 266.12, 480.42 68.72 M124.42 479.26 C202.44 387.9, 281.92 296.41, 481.18 68.66 M129.89 479.55 C264.48 325.83, 397.93 171.83, 480.76 74.69 M129.41 479.51 C256.28 334.44, 383.5 187.45, 480.88 74.63 M133.85 479.93 C233.96 364.66, 334.52 251.36, 481.59 80.45 M134.37 479.54 C243.83 354.16, 354.01 227.53, 480.93 80.36 M140.63 479.02 C213.96 394.99, 288.73 309.14, 481.51 87.23 M139.55 479.53 C265.63 334.45, 391.47 189.88, 480.82 87.23 M144.08 480 C244.82 366.29, 343.85 251.48, 480.65 93.73 M145.02 480.06 C215.72 396.34, 286.9 313.94, 480.62 93.23 M150.61 478.82 C230.34 388.47, 308.57 297.44, 481.06 99.33 M150.11 479.61 C229.6 390.41, 307.34 300.23, 481.11 98.82 M155.52 479.09 C243.84 375.91, 332.99 272.82, 480.58 105.65 M155.81 479.27 C225.57 397, 296.83 314.48, 480.6 105.48 M161.72 478.97 C242.27 384.39, 321.95 292.74, 481.38 110.51 M160.82 479.58 C228.63 402.96, 296.38 325.63, 481.68 110.84 M165.45 479.76 C276.31 351.29, 387.68 224, 480.52 116.56 M165.69 479.52 C234 398.73, 303.46 319.55, 480.57 117.45 M172.38 478.94 C293.32 338.24, 417.39 196.36, 480.24 123.77 M172.04 479.07 C266.47 369.05, 360.91 260.83, 480.63 123.8 M175.82 479.07 C291.65 347.37, 407.69 213.71, 481.84 128.91 M176.71 479.87 C256.06 387.37, 336.62 295.19, 481.55 129.39 M182.21 479.31 C285.98 361.33, 388.15 240.78, 480.53 136.01 M181.94 479.36 C272.75 374.86, 364.88 268.35, 481.17 135.74 M186.78 480.49 C287.51 365.12, 388.92 249, 482.01 141.23 M187.19 479.97 C296.26 355.81, 405.11 231.76, 481.57 141.45 M192.48 480.09 C279.03 378.82, 364.38 279.96, 481.22 147.29 M192.94 478.88 C299.68 356.18, 406.27 233.82, 480.67 147.72 M198.15 479.33 C298.84 361.29, 402.38 244.1, 481.03 153.75 M197.81 479.24 C287.67 375.46, 379.84 270.07, 480.23 154.44 M204.44 478.47 C310.71 355.8, 419.51 231.33, 481.52 160.27 M203.46 478.72 C263.96 412.82, 323.4 344.13, 481.6 159.94 M209.41 479.96 C286.08 389.12, 362.89 302.67, 480.7 165.79 M208.98 478.94 C284.4 390.17, 360.82 302.56, 481 166.71 M214.77 479.14 C287.62 393.31, 361.94 306.4, 482.32 172.99 M214.47 478.91 C301.5 379.96, 388.72 278.94, 481.04 171.36 M219.51 480.09 C293.84 394.24, 368.09 307.93, 480.62 178.29 M219.7 479.34 C318.16 368.06, 416.59 255.45, 480.88 178.69 M223.76 480.01 C319.44 369.88, 413.03 262.96, 481.39 185.33 M224.44 479.3 C318.64 369.12, 414.24 259.49, 480.22 184.8 M229.25 478.5 C300.56 400.31, 370.45 318.2, 480.74 190.68 M229.54 479.35 C301.01 396.96, 372.92 314.82, 481.39 189.79 M236.3 480.12 C328.63 372.08, 422.52 267.62, 480.15 196.36 M235.99 479.52 C327.11 373.54, 419.84 266.87, 481.1 196.16 M241.71 480.38 C314.81 394.91, 390.24 306.26, 480.55 201.39 M240.07 479.95 C310.53 400.79, 379.75 321.56, 481.47 202.87 M245.03 480.03 C332.35 381.23, 418.56 281.33, 480.31 209.21 M246.71 478.91 C325.54 388.45, 405.34 297.12, 480.8 209.27 M252.29 480.59 C331.88 386.46, 411.59 290.92, 481.04 216.25 M251.38 479.53 C298.49 425.44, 346.32 371.31, 481.31 215.36 M256.14 480.23 C330 395, 403.83 309.16, 481.56 220.46 M256.59 479.95 C306.45 423.58, 355.44 365.83, 481.52 220.91 M260.57 480.22 C329.33 401.79, 397.83 322.26, 479.58 227.97 M261.77 478.65 C315.44 419.04, 368.96 357.75, 481.42 227.02 M267.48 480.73 C348.31 386.84, 428.86 292.47, 480.32 233.42 M267.27 480.11 C343.33 390.24, 421 302.12, 481.27 232.63 M271.28 479.63 C317.77 429.09, 360.28 376.27, 481.75 237.98 M272.99 479.22 C349.47 393.23, 425.6 305.2, 481.13 239.91 M276.78 480.2 C351.8 389.64, 427.83 303, 479.93 246 M277.95 480.22 C328.43 421.36, 380.51 362.14, 480.82 245.31 M283.64 478.23 C331.86 425.44, 377.96 372.19, 479.7 251.95 M283.63 478.79 C342.92 407.86, 404.15 337.26, 481.39 250.9 M287.63 478.18 C344.16 416.14, 400.8 349.46, 479.93 258.27 M287.99 480.1 C359.85 395.24, 433.56 310.04, 481.2 257.39 M293.17 480.35 C346.5 419.85, 396.01 361.57, 482.1 263.26 M293.07 478.87 C364.67 396.2, 436.84 314.09, 481.26 263.72 M297.59 479.24 C343.65 425.28, 391.97 373.92, 480.22 268.73 M299.17 479.31 C366.86 398.5, 436 319.45, 480.87 269.29 M303.68 480.48 C365.16 407.02, 430.04 332.83, 482.06 276.52 M304.78 479.35 C349.37 425.34, 395.35 371.65, 480.03 276.92 M309.69 477.98 C358.63 421.16, 410.18 361.54, 480.91 283.23 M309.82 480.29 C351.61 428.97, 396.79 378.77, 481.45 282 M315.79 477.67 C354.86 430.49, 398.82 384.96, 479.72 287.02 M315.67 479.88 C379.42 405.78, 442.69 331.88, 481.63 287.79 M320.28 480.26 C352.18 439.49, 382.72 402.6, 481.64 294.13 M319.09 479 C382.34 406.67, 447.02 333.41, 480.94 293.08 M326.3 479.76 C365.7 434.69, 401.88 392.93, 482.68 300.8 M324.97 479.77 C385.69 412.98, 445.13 344.87, 481.13 300.52 M331.5 477.94 C369.98 430.76, 412.71 383.76, 480.8 305.94 M330.55 479.04 C381.53 422.48, 431.86 365.88, 480.94 307.04 M334.51 480.63 C387.02 421.52, 437.12 363.87, 482.42 312.25 M336.44 479.71 C365.32 442.88, 395.24 408.83, 481.69 311.8 M341.69 478.19 C392.66 423.03, 443.26 365.51, 481.57 320.22 M340.63 478.99 C396.99 416.9, 451.14 353.17, 481.18 319.36 M346.21 479.24 C392.35 424.63, 439.87 372.95, 483.03 324.52 M346.57 478.44 C378.38 443.43, 408.84 409.39, 480.97 324.76 M352.11 480.72 C382.84 446.41, 410.08 413.32, 481.26 328.9 M351.91 478.69 C385.3 439.99, 417.74 400.26, 480.35 330.68 M356.25 480.64 C392.98 436.62, 430.64 395.35, 480.53 336.98 M358.19 479.8 C403.57 427.29, 446.85 375.18, 480.49 337.92 M363.49 479.69 C403.79 428.18, 447.05 378.95, 480.6 343.92 M362.9 479.84 C408.46 425.62, 455.58 372.37, 481.07 342.49 M365.42 477.98 C392.24 450.94, 417.78 418.96, 479.48 349.06 M367.22 478.8 C401.75 443.51, 434.43 405.89, 481.65 348.59 M372.1 479.48 C395.67 450.18, 420.23 425.95, 480.05 352.86 M373.15 479.66 C415.76 431.38, 458.21 381.54, 481.39 354.25 M379.83 480.62 C409.48 444.09, 438.23 409.72, 482.49 361.21 M378.7 479.49 C406.67 447.78, 433.81 415.52, 480.9 360.28 M385.5 479.22 C416.34 439.81, 451.5 401.11, 482.7 366.43 M383.58 479.11 C411.26 448.94, 435.83 418.36, 479.98 367.79 M387.08 478.79 C422.31 441.14, 456.68 400.87, 480 371.72 M389.06 479.94 C418.39 443.38, 450.37 409.42, 480.74 373.39 M394.63 480.72 C415.05 451.53, 437.92 427.94, 480.99 379.72 M394.41 478.86 C425.82 442.38, 458.51 405.87, 480.8 380.33 M398.79 480.59 C419.53 456.73, 440.02 432.35, 481.17 386.23 M398.7 479.13 C421.36 453.92, 443.44 428.76, 480.32 386.79 M405.8 480.37 C434.37 447.29, 461.61 415.9, 480.76 392.7 M405.21 479.24 C422.46 458.75, 439.3 439.06, 481.15 391.07 M409.96 480.73 C432.56 454.09, 452.21 431.3, 480.49 398.78 M409.31 479.77 C427.18 460, 445.09 440.74, 480.04 398.73 M416.68 477.21 C430.3 463.34, 443.31 442.8, 479.89 403.23 M414.83 478.28 C437.18 454.35, 459.93 428.01, 480.3 404.14 M418.96 480.56 C444.27 452.65, 469.17 423.01, 481.86 408.28 M419.92 480.21 C443.06 454.73, 465.62 427.93, 481.69 409.43 M424.35 480.9 C446.97 459.42, 461.6 437.77, 478.96 416.53 M425.44 479.71 C446.79 454.21, 467.98 430.46, 480.16 416.09 M431.53 480.05 C447.98 460.21, 463.45 442.71, 481.23 423.51 M430.85 478.54 C449.81 458.64, 468.1 437.09, 480.99 422.07 M437.24 479.72 C451.65 461.42, 463.56 447.52, 479.92 430.18 M436.53 478.92 C454.32 460.33, 470.51 441.2, 479.94 428.93 M440.81 477.8 C451.58 470.43, 459.36 459.09, 481.89 435.88 M441.74 478.48 C453.34 465.28, 465.85 450.85, 480.99 433.47 M447.16 480.58 C456.82 468.42, 466.85 453.6, 482.1 438.66 M446.9 479.02 C458.92 466.89, 469.45 454.94, 480.19 440.59 M451.29 479.02 C463.38 465.69, 475.49 456, 481.89 448.18 M451.55 479.49 C458.71 472.83, 465.39 464.97, 481.4 446.92 M457.29 481.01 C464.47 473.41, 466.23 469.72, 480.87 454.31 M458.66 478.78 C466.32 467.73, 475.31 457.44, 481.43 451.94 M462.84 479.57 C469.79 472.89, 477.74 464.03, 480.6 459.56 M462.54 478.67 C468.95 473.89, 473.13 467.45, 481.2 459.13 M470.13 477.26 C472.52 476.69, 473.53 474.42, 482.9 464.13 M469.2 478.68 C473.67 473.68, 477.43 469.9, 481.46 465.51 M474.26 478.57 C475.35 476.43, 478.19 472.66, 481.95 470.51 M474.03 479.09 C476.24 476.67, 478.46 473.97, 480.81 470.9" stroke="#ced4da" stroke-width="0.5" fill="none"></path><path d="M0.03 -0.54 C166.48 1.43, 331.89 2.01, 478.92 -0.5 M-0.28 0.28 C150.79 -0.13, 301.6 0.09, 479.28 0.31 M478.69 0.85 C479.67 127.94, 479.43 255.92, 479.7 478.23 M478.78 0.27 C477.65 98.06, 477.99 195.52, 479.52 477.72 M479.56 478.37 C362.79 480.08, 244.75 479.76, 0.61 476.84 M478.92 477.15 C328.59 478.56, 177.16 478.87, -0.29 478.01 M-0.63 477.48 C-0.46 342.33, 0.66 207.34, -0.71 -0.7 M0.32 477.85 C-0.67 370.98, -0.55 265.4, 0.1 0.01" stroke="#0f206f" stroke-width="1" fill="none"></path></g><g stroke-linecap="round"><g transform="translate(1279.2553208011254 346.65154192724333) rotate(0 34.239978933203474 7.626416474911423)" fill-rule="evenodd"><path d="M0 0 C0 0, 0 0, 0 0 M0 0 C0 0, 0 0, 0 0 M1.18 7.47 C4.6 1.84, 10.07 -2.47, 15.54 -12.32 M-0.44 4.74 C5.79 0.15, 11.57 -7.38, 16.12 -12.44 M-0.17 11.46 C5.45 3.8, 14.49 -3.34, 19.65 -13.18 M0.54 11.86 C5.6 5.42, 13.62 -1.87, 21.15 -12.37 M0.9 18.03 C6.04 9.8, 16.16 2.12, 28.43 -11.64 M1.48 16.87 C10.98 6.88, 19.64 -3.58, 27.92 -14.11 M3.57 20.11 C13.43 7.87, 21.74 0.46, 33.92 -14.61 M4.27 20.73 C11.46 10.71, 20.81 -1.51, 34.38 -13.7 M4.22 21.85 C16.19 12.95, 23.99 2.06, 38.18 -15.3 M5.28 23.89 C12.19 15.87, 19.94 6.97, 39.45 -14.86 M8.44 25.11 C22.28 10.89, 33.53 -0.03, 42.14 -14.46 M8.09 26.08 C19.27 14.62, 29.85 1.76, 42.49 -12.85 M12.13 29.2 C24.12 15.79, 32.62 6.69, 46.56 -13.12 M13.09 27.51 C25.35 14.57, 36.18 2.36, 48.89 -11.84 M17.69 30.91 C29.94 12.54, 42.62 -0.94, 51.65 -11.87 M16.41 30.24 C24.9 21.87, 31.53 12.6, 52.28 -12.81 M22.89 30.71 C30.69 16.89, 39.94 4.53, 56.62 -10.55 M21.34 29.75 C29.26 21.8, 36.49 12.78, 56.75 -9.87 M27.23 31.56 C39.45 16.45, 51.26 1.72, 61.22 -10.32 M25.35 31.15 C34.4 20.1, 43.4 10.34, 61 -8.98 M29.39 32.37 C38.77 21.06, 48.08 12.37, 63.39 -6.63 M32.15 31.96 C42.78 17.69, 53.39 4.91, 62.59 -5.47 M36.25 31.77 C45.92 20.88, 57.46 5.71, 64.8 -3.2 M35.37 31.31 C43.69 22.56, 51.15 14.05, 66.17 -2.74 M40.42 30.07 C48.3 22.34, 58.12 13.51, 71.14 -0.07 M42.66 31.27 C51.3 19.55, 60.48 8.37, 70.28 -0.84 M47.87 30.08 C53.61 23.74, 56.49 17.51, 69.04 5.74 M47.96 31.01 C53.45 23.03, 59.75 17.27, 71.04 4.14 M55.44 27.03 C59.19 23.28, 65.41 18.87, 68.24 13.36 M53.67 28.13 C59.62 23.15, 63.53 18.04, 68.83 10.67 M62.28 25.77 C64.49 23.89, 66.25 22.08, 68.92 18.49 M62.48 25.49 C65.56 22.22, 67.59 19.45, 69.61 18.01" stroke="#0f206f" stroke-width="0.5" fill="none"></path><path d="M0.46 -0.86 C0.6 0.99, -0.45 6.95, -0.34 10.21 C-0.22 13.48, -0.13 16.26, 1.14 18.73 C2.41 21.19, 3.48 23.33, 7.28 25.03 C11.08 26.73, 17.39 28.05, 23.93 28.93 C30.47 29.82, 40.53 30.66, 46.5 30.37 C52.47 30.08, 56.18 29.09, 59.76 27.21 C63.33 25.32, 66.33 22.02, 67.98 19.08 C69.63 16.14, 69.56 12.99, 69.65 9.59 C69.75 6.18, 70.42 1.9, 68.52 -1.35 C66.63 -4.6, 62.41 -7.72, 58.28 -9.9 C54.14 -12.08, 49.48 -13.65, 43.71 -14.44 C37.95 -15.23, 29.6 -15.51, 23.69 -14.62 C17.78 -13.73, 12.33 -11.59, 8.24 -9.08 C4.15 -6.57, 0.67 -0.97, -0.84 0.44 M-0.76 1.3 C-0.72 2.92, -1.78 5.51, -1.54 8.67 C-1.3 11.82, -0.75 17.37, 0.66 20.22 C2.07 23.07, 3.25 24.28, 6.92 25.76 C10.59 27.23, 16.36 28.39, 22.69 29.07 C29.01 29.74, 38.63 30.25, 44.87 29.82 C51.12 29.38, 56.5 28.36, 60.15 26.45 C63.8 24.55, 65.45 21.39, 66.79 18.39 C68.13 15.38, 67.74 11.81, 68.19 8.45 C68.64 5.09, 71.16 1.11, 69.49 -1.76 C67.83 -4.62, 62.69 -6.52, 58.2 -8.74 C53.71 -10.96, 48.25 -14.47, 42.56 -15.06 C36.88 -15.64, 29.9 -13.16, 24.11 -12.24 C18.31 -11.31, 11.96 -11.57, 7.79 -9.51 C3.61 -7.45, 0.38 -1.53, -0.95 0.11" stroke="#000000" stroke-width="1" fill="none"></path></g></g><mask></mask><g stroke-linecap="round" transform="translate(1285.363089836861 334.32856283570163) rotate(0 28.229363617963486 10.795932261827375)"><path d="M31.38 0.08 C37.02 0.07, 43.95 1.97, 48.04 3.71 C52.13 5.46, 55.51 8.46, 55.91 10.53 C56.3 12.61, 53.82 14.26, 50.39 16.15 C46.97 18.05, 40.99 21.3, 35.37 21.9 C29.75 22.5, 22.03 20.96, 16.66 19.74 C11.3 18.51, 5.74 16.61, 3.19 14.56 C0.64 12.51, -0.23 9.56, 1.37 7.42 C2.98 5.29, 6.7 3.03, 12.83 1.76 C18.96 0.49, 32.81 -0.3, 38.14 -0.2 C43.48 -0.09, 44.89 2.21, 44.85 2.41 M20.36 1 C25.78 0.25, 34.06 -1.5, 39.74 -0.42 C45.42 0.67, 51.73 5.18, 54.44 7.51 C57.14 9.84, 57.7 11.64, 55.99 13.57 C54.28 15.5, 49.09 17.6, 44.17 19.1 C39.25 20.6, 32.37 22.61, 26.45 22.55 C20.53 22.49, 13.24 20.46, 8.66 18.74 C4.08 17.01, -0.61 14.41, -1.04 12.2 C-1.47 9.99, 2.31 7.25, 6.07 5.48 C9.83 3.72, 18.91 2.51, 21.52 1.6 C24.12 0.69, 21.69 -0.2, 21.7 0.01" stroke="none" stroke-width="0" fill="#0f206f"></path><path d="M39.71 0.51 C45.02 1.24, 51.65 3.67, 54.42 6.02 C57.18 8.36, 58.14 12.13, 56.33 14.58 C54.52 17.03, 48.78 19.64, 43.55 20.71 C38.32 21.77, 30.84 21.31, 24.94 20.97 C19.05 20.63, 12.29 20.23, 8.19 18.66 C4.1 17.1, 0.95 13.92, 0.39 11.59 C-0.18 9.27, 1.23 6.64, 4.81 4.71 C8.4 2.78, 15.56 0.67, 21.89 0.01 C28.23 -0.65, 39.08 0.48, 42.83 0.77 C46.58 1.05, 44.79 1.39, 44.39 1.73 M20.47 -0.92 C25.74 -1.59, 31.95 -0.41, 37.44 0.63 C42.94 1.68, 50.57 3.47, 53.45 5.37 C56.33 7.28, 55.83 9.52, 54.72 12.07 C53.62 14.61, 51.39 18.86, 46.83 20.64 C42.27 22.43, 33.53 23.02, 27.36 22.77 C21.18 22.52, 14.25 20.94, 9.78 19.13 C5.31 17.32, 1.65 14.25, 0.53 11.92 C-0.58 9.59, 0.17 6.93, 3.09 5.15 C6.01 3.36, 15.59 2.02, 18.05 1.2 C20.52 0.37, 17.4 0.09, 17.9 0.18" stroke="#000000" stroke-width="1" fill="none"></path></g><g stroke-linecap="round"><g transform="translate(1279.560750122916 371.32576840267166) rotate(0 33.881270768820286 14.602467739742906)" fill-rule="evenodd"><path d="M0 0 C0 0, 0 0, 0 0 M0 0 C0 0, 0 0, 0 0 M0.87 5.88 C1.69 4, 3.2 2.44, 3.97 1.45 M0.53 5.44 C1.24 4.65, 1.86 3.91, 3.83 1.83 M0.86 11.76 C1.9 8.71, 4.37 6.38, 7.08 4.15 M1.23 11.44 C2.72 9, 4.39 7.18, 7.68 3.83 M2.17 17.7 C4.88 14.68, 7.83 9.65, 10.46 7.7 M1.21 17.32 C3.45 14.01, 5.2 12.85, 9.93 6.37 M3.24 21.75 C7.09 16.29, 10.43 14.2, 13.67 8.02 M2.83 19.45 C8.31 16.21, 11.46 11.17, 15.26 5.96 M6.69 22.05 C8.24 19.03, 9.94 17.49, 20.9 5.83 M6.44 22.73 C11.33 17.54, 15.66 12.27, 20.53 6.84 M11.04 25.55 C12.69 19.42, 17.07 15.02, 25.6 6.52 M10.28 23.99 C13.73 20.26, 18.03 15.69, 24.65 7.63 M14.11 28.02 C18.45 19.12, 26.38 10.76, 31.1 8.22 M14.4 27.22 C19.5 21.81, 24.35 16.13, 29.25 8.94 M15.65 30.24 C22.79 21.49, 28.65 14.11, 33.81 7.86 M17.81 28.33 C23.42 20.09, 30.74 13.75, 35.48 9.41 M21.01 26.96 C28.14 22.39, 32.03 17.96, 38.7 9.62 M22.65 29.18 C27.47 23.64, 32.89 17.7, 38.17 11.28 M28.08 28.4 C33.89 21.03, 37.67 18.27, 42.7 8.58 M27.8 28.46 C33.77 22.53, 38.2 17.34, 44 9.47 M33.46 29.48 C39 21.53, 46.63 15.96, 51.85 11.07 M31.68 30.35 C38.52 22.16, 46.66 14.19, 51.15 9.26 M37.43 29.1 C42.64 22.22, 49.58 12.95, 58.7 4.13 M37.82 29.08 C43.23 23.79, 49.37 15.83, 59.41 5.11 M42.83 31.1 C51.38 22.88, 56.95 16.05, 68.03 2.49 M42.37 29.34 C52.03 20.31, 58.4 12.07, 68.45 1.09 M47.36 28.28 C52.39 24.84, 58.27 19.1, 66.49 8.2 M49.05 29.66 C55.67 21.95, 61.58 14.58, 68.18 7.79 M55.79 29.93 C56.07 27.36, 60.75 23.49, 69.08 11.36 M53.93 29.28 C56.89 24.33, 59.99 21.86, 67.76 12.49" stroke="#0f206f" stroke-width="0.5" fill="none"></path><path d="M-0.49 1.1 C-0.45 2.75, 0.59 6.28, 0.69 9.07 C0.79 11.86, -1.47 15.32, 0.12 17.85 C1.71 20.39, 5.96 22.43, 10.22 24.3 C14.47 26.16, 19.83 28.24, 25.68 29.05 C31.52 29.85, 39.79 29.84, 45.3 29.14 C50.8 28.44, 55.05 26.26, 58.69 24.84 C62.33 23.42, 65.49 22.98, 67.14 20.63 C68.79 18.28, 68.57 13.97, 68.58 10.74 C68.59 7.5, 67.57 2.7, 67.21 1.21 C66.85 -0.28, 67.91 1.16, 66.43 1.79 C64.95 2.42, 61.86 3.98, 58.34 5 C54.82 6.01, 50.88 7.21, 45.28 7.88 C39.68 8.55, 30.73 9.47, 24.74 9.01 C18.76 8.56, 13.63 6.47, 9.37 5.14 C5.11 3.8, 0.94 2, -0.82 1 M1.46 0.63 C1.35 1.98, -0.13 4.09, 0.03 7.12 C0.18 10.15, 0.63 15.79, 2.41 18.79 C4.19 21.8, 6.96 23.28, 10.69 25.14 C14.43 27, 18.86 29.34, 24.82 29.93 C30.78 30.52, 40.73 29.22, 46.46 28.7 C52.18 28.17, 55.86 28.16, 59.17 26.8 C62.48 25.44, 64.99 23.44, 66.32 20.53 C67.64 17.63, 66.9 12.67, 67.11 9.4 C67.32 6.13, 67.6 2.07, 67.58 0.93 C67.56 -0.21, 68.76 2.05, 67.01 2.58 C65.27 3.11, 60.65 3.41, 57.11 4.12 C53.57 4.83, 50.74 6, 45.76 6.82 C40.79 7.64, 33.34 9.48, 27.26 9.05 C21.18 8.63, 13.87 5.93, 9.29 4.27 C4.71 2.62, 1.23 -0.07, -0.22 -0.88" stroke="#000000" stroke-width="1" fill="none"></path></g></g><mask></mask><g stroke-linecap="round"><g transform="translate(1279.5930200537014 394.89351502878105) rotate(0 34.07639797682555 12.950802209786843)" fill-rule="evenodd"><path d="M0 0 C0 0, 0 0, 0 0 M0 0 C0 0, 0 0, 0 0 M0.63 5.66 C1.28 4.65, 2.24 3.5, 3.26 1.42 M0.19 5.8 C1.19 4.56, 2.24 3.48, 3.64 1.8 M1.27 10.55 C1.62 9.67, 2.7 7.88, 7.76 3.56 M0.94 11.3 C1.98 9.5, 3.64 8.44, 7.44 3.83 M1.96 17.63 C4.33 15.25, 4.7 12.25, 11.7 5.23 M1.57 17.27 C4.13 12.93, 8.82 8.33, 10.38 6.29 M4.99 20.48 C7.47 15.83, 13.3 9.47, 16.65 7.49 M2.68 20.89 C6.51 17.31, 8.54 14.74, 14.59 5.9 M4.93 22.4 C10.66 14.95, 17.87 11.26, 19.09 7.48 M5.61 23.67 C9.31 19.19, 12.93 14.81, 20.1 6.49 M10.99 23.9 C14.38 18.42, 19.46 13.01, 23.65 6.97 M9.43 24.25 C14.37 19.86, 18.47 15.37, 24.76 8.33 M15.92 24.45 C19.58 19.91, 23.77 14.67, 29.32 8.72 M15.12 26.78 C20.86 20.3, 26.31 12.63, 30.04 9.37 M19.95 26.42 C23.03 20.94, 27.49 17.08, 33.59 10.8 M18.04 27.05 C23.79 20.39, 31.46 14.14, 35.13 9.44 M21.29 28.08 C27 22.07, 32.84 19.71, 37.16 10.99 M23.51 28.21 C28.49 23.07, 33.09 16.66, 38.81 11.18 M27.36 29.36 C31.89 21.21, 41.04 14.56, 42.15 11.16 M27.42 29.14 C32.4 22.79, 38.11 18.11, 43.04 11.01 M33.07 28.87 C37.36 24.43, 44.02 19.21, 52.09 10.91 M33.94 28.07 C38.89 23.43, 44.06 17.64, 50.28 9.38 M36.66 28.38 C42.63 22.64, 46.25 17.95, 56.83 5.48 M36.64 29.74 C44.47 22.67, 49.61 16.35, 57.81 5.32 M44.69 31.31 C48.61 24.95, 53.93 17.98, 69.7 1.26 M42.94 30.45 C49.97 21.12, 57.78 14.17, 68.29 0.59 M47.92 27.75 C56.99 21.03, 63.76 12.72, 68.75 7.92 M49.3 29.75 C54.63 22.67, 60.29 16.17, 68.34 6.42 M56.25 26.72 C60.91 23.95, 64.26 19.9, 66.65 11.62 M55.61 27.31 C58.84 22.12, 64.55 17.32, 67.79 13.33" stroke="#0f206f" stroke-width="0.5" fill="none"></path><path d="M1.1 0.54 C1.32 1.84, 0.57 4.35, 0.48 7.34 C0.39 10.33, -0.91 15.5, 0.55 18.49 C2.02 21.48, 5.13 23.88, 9.28 25.27 C13.43 26.67, 19.16 26.57, 25.43 26.85 C31.71 27.12, 41.42 27.19, 46.91 26.91 C52.39 26.63, 54.94 26.34, 58.33 25.19 C61.71 24.03, 65.56 22.58, 67.22 19.98 C68.88 17.38, 68.1 12.7, 68.28 9.6 C68.46 6.49, 68.75 2.54, 68.29 1.34 C67.84 0.15, 67.43 1.64, 65.57 2.44 C63.7 3.25, 60.66 5.38, 57.12 6.18 C53.59 6.98, 49.54 7.03, 44.35 7.25 C39.17 7.48, 31.82 7.97, 26.02 7.55 C20.22 7.13, 13.73 6.2, 9.56 4.75 C5.4 3.29, 2.74 -0.38, 1 -1.18 M0.21 -0.22 C0.38 1.23, -0.77 5.51, -0.29 8.27 C0.18 11.04, 1.48 13.87, 3.07 16.38 C4.66 18.89, 5.7 21.57, 9.27 23.34 C12.83 25.1, 18.46 26.59, 24.45 26.99 C30.45 27.38, 39.56 26.2, 45.25 25.71 C50.95 25.22, 55.08 25.02, 58.62 24.05 C62.15 23.07, 65.1 21.94, 66.44 19.84 C67.78 17.75, 66.19 14.6, 66.66 11.48 C67.12 8.37, 69.4 2.47, 69.24 1.15 C69.08 -0.16, 67.41 2.8, 65.69 3.61 C63.97 4.42, 62.47 5.01, 58.92 6.01 C55.36 7.02, 49.91 9.49, 44.35 9.65 C38.79 9.81, 31.34 7.93, 25.55 6.95 C19.75 5.97, 14.02 5.01, 9.58 3.76 C5.14 2.51, 0.32 -0.03, -1.09 -0.55" stroke="#000000" stroke-width="1" fill="none"></path></g></g><mask></mask><g transform="translate(1203.7872215396835 432.412402148752) rotate(0 113.5 18)"><text x="113.5" y="25" font-family="Virgil, Segoe UI Emoji" font-size="28px" fill="#e5004e" text-anchor="middle" style="white-space: pre;" direction="ltr">Private Registry</text></g><g stroke-linecap="round"><g transform="translate(963.4829976738765 238.60685646572617) rotate(0 152.20331978050228 53.588099111636865)"><path d="M-0.45 -0.02 C49.94 17.88, 252.05 89.03, 302.46 107.3 M1.51 -1.08 C52.3 16.94, 254.39 90.1, 304.86 108.25" stroke="#000000" stroke-width="1" fill="none"></path></g><g transform="translate(963.4829976738765 238.60685646572617) rotate(0 152.20331978050228 53.588099111636865)"><path d="M305.23 108.88 L290.34 109.71 L295.54 97.84 L302.94 108.89" stroke="none" stroke-width="0" fill="#000000" fill-rule="evenodd"></path><path d="M304.83 107.52 C298.89 107.27, 297.18 108.38, 289.79 110.33 M304.76 108 C300.03 109.16, 296.4 108.9, 289.45 110 M289.5 108.72 C292.19 105.47, 293.96 100.64, 293.72 96.53 M289.32 109.4 C290.96 107.15, 292.24 104.84, 294.34 97.53 M295.05 97.7 C297.43 102.61, 302.03 106.22, 303.71 109.61 M293.78 97.62 C296.78 100.46, 299.61 101.76, 305.08 107.61 M304.86 108.25 C304.86 108.25, 304.86 108.25, 304.86 108.25 M304.86 108.25 C304.86 108.25, 304.86 108.25, 304.86 108.25" stroke="#000000" stroke-width="1" fill="none"></path></g></g><mask></mask><g transform="translate(603.4041028337554 27.21444221980036) rotate(0 93.5 18)"><text x="93.5" y="25" font-family="Virgil, Segoe UI Emoji" font-size="28px" fill="#e5004e" text-anchor="middle" style="white-space: pre;" direction="ltr">Image Layers</text></g><g transform="translate(1253.0591321306304 103.99679085261286) rotate(0 76.5 18)"><text x="76.5" y="25" font-family="Virgil, Segoe UI Emoji" font-size="28px" fill="#e5004e" text-anchor="middle" style="white-space: pre;" direction="ltr">Docker Hub</text></g><g stroke-linecap="round"><g transform="translate(1383.0916704193821 32.66254694413169) rotate(0 -58.30401823228112 22.549029407843676)" fill-rule="evenodd"><path d="M-136.93 13.47 C-136.93 13.47, -136.93 13.47, -136.93 13.47 M-136.93 13.47 C-136.93 13.47, -136.93 13.47, -136.93 13.47 M-136.14 18.5 C-134.86 17.33, -133.73 15.8, -132 13.84 M-135.58 18.58 C-134.21 16.5, -132.95 15.02, -131.98 13.68 M-134.84 26.21 C-132.52 19.96, -129.31 18, -126.23 14.22 M-135.78 24.47 C-132.32 21.34, -128.97 17.7, -126.56 13.03 M-134.46 30.4 C-132.23 26.11, -128.65 19.82, -123.08 14.5 M-136.65 30.16 C-131.46 26.4, -128.08 21.22, -121.51 13.43 M-134.95 32.12 C-126.2 24.58, -121.26 19.96, -113.77 14.16 M-132.91 34.27 C-127.66 27.09, -121.28 18.47, -116.45 13.16 M-130.88 36.98 C-123.3 31.72, -119.15 22.75, -109.83 14.94 M-131.78 39.04 C-124.22 29.91, -115.37 20.67, -110.3 13.85 M-130.71 43.06 C-121.22 32.24, -112.83 18.5, -103.17 13.66 M-130.35 41.77 C-122.23 33.24, -116.7 26.07, -104.63 14.19 M-127.33 44.78 C-121.97 38.41, -111.44 29.4, -98.32 14.48 M-128.26 45.49 C-117.69 34.85, -107.97 23.84, -101.01 14.3 M-125.24 48.8 C-125.24 48.8, -125.24 48.8, -125.24 48.8 M-125.24 48.8 C-125.24 48.8, -125.24 48.8, -125.24 48.8 M-122.93 45.01 C-116.07 37.26, -106.98 28.37, -95.84 13.92 M-122.53 44.66 C-116.5 38.42, -109.41 31.03, -94.79 12.94 M-121.79 51.35 C-120.87 50.27, -119.95 48.77, -119.09 48.08 M-122.41 51.22 C-121.03 50.06, -119.69 48.33, -118.79 47.77 M-116.08 46.11 C-108.33 38.1, -101.13 30.05, -90.78 15.48 M-117.91 46.32 C-108.2 36.16, -99.78 24.27, -89.97 13.18 M-119.69 53.95 C-118.33 53.04, -117.78 51.7, -114.96 48.16 M-119.27 53.81 C-117.52 52.14, -116.51 50.94, -114.42 48.57 M-111.02 44.96 C-102.57 36.12, -97.53 25.98, -82.96 12.64 M-112.27 45.1 C-103.33 34.37, -94.96 24.88, -83.48 12.63 M-117.35 55.5 C-113.88 54.48, -112.49 52.22, -107.78 47.63 M-116.4 56.49 C-113.19 53.49, -110.87 49.94, -108.39 47.56 M-107.35 44.16 C-97.78 36.09, -91.89 25.9, -77.24 13.83 M-106.41 44.69 C-96.63 36.41, -89.84 27.59, -79.39 13.7 M-112.82 58.93 C-108.67 53.85, -104.21 49.42, -100.79 46.94 M-112.98 59.18 C-108.81 54.38, -104.83 48.91, -101.29 46.71 M-99.47 41.93 C-94.6 36.72, -86.61 30.81, -72.89 15.08 M-98.61 42.84 C-94.18 36.11, -88.52 30.34, -73.39 13.33 M-110.33 59.12 C-93.28 43.45, -79.76 27.92, -68.1 14.08 M-108.59 60.28 C-96.36 46.17, -86.53 33.37, -67.23 12.96 M-103.83 60.65 C-92.59 47.84, -82.11 38.12, -62.62 12.72 M-104.84 62.82 C-89.61 44.1, -73.07 25.84, -62.68 14.64 M-100.69 62.94 C-87.56 50.04, -74.45 36.04, -57.38 14.65 M-99.47 62.63 C-86.03 48, -73.65 31.57, -58.35 12.65 M-95.83 64.26 C-79.58 46.29, -65.76 29.96, -50.83 13.78 M-94.65 63.86 C-81.43 46.28, -68.53 30.45, -53.34 14.3 M-91.92 62.87 C-79.29 52.28, -66.57 37.44, -46.78 12.29 M-91.05 65.12 C-82.31 53.63, -73.27 43.72, -47.05 13.32 M-86.45 62.82 C-76.49 50, -65.44 40.36, -42.68 12.77 M-84.82 64.71 C-74.13 49.59, -61.65 37.16, -42.32 14.41 M-81.4 63.56 C-72.47 53.99, -61.35 41.89, -37.43 12.21 M-80.18 64.64 C-65.74 48.62, -53.13 32.07, -37.2 12.61 M-11.03 -15.16 C-10.36 -16.09, -10.35 -16.92, -8.81 -18.13 M-11.45 -15.14 C-10.69 -16.05, -9.64 -16.72, -8.89 -18.18 M-75.84 67.73 C-64.69 50.15, -51.33 38.56, -29.5 14.96 M-76.22 65.07 C-66.38 55.65, -58.07 44.76, -31.35 14.81 M-12.09 -8.52 C-10.2 -10.1, -7.92 -14.56, -6.35 -15.38 M-12.11 -8.17 C-10.48 -9.55, -9.77 -10.91, -5.29 -15.81 M-70.52 65.68 C-56.35 50.93, -45.87 36.18, -26.59 12.42 M-71.2 65.73 C-56.08 46.64, -41.87 30.72, -26.16 13.98 M-11.64 -2.4 C-9.14 -6.67, -6.44 -7.63, -2.49 -11.94 M-12.32 -2.02 C-8.95 -4.76, -7.07 -8.64, -2.69 -12.58 M-65.31 65.55 C-47.95 45.16, -30.33 23.06, -20.06 12.54 M-64.92 62.68 C-51.5 49.67, -38.63 35.85, -19.62 11.63 M-9.85 3.82 C-7.77 -0.97, -3.47 -5.27, 0.15 -7.61 M-10.76 2.23 C-8.77 0.57, -5.95 -2.66, -1.34 -8.57 M-55.88 64.36 C-40.8 40.09, -20.75 19.31, -11.98 11.44 M-57.08 62.76 C-41.68 44.26, -25.38 25.5, -11.13 9.8 M-8.7 5.95 C-4.52 3.55, -2.93 0.04, -0.44 -3.31 M-8.55 5.5 C-5.74 3.08, -4.07 -0.41, 0.53 -3.28 M-49.62 60.29 C-31.67 39.1, -12.8 18.5, 2.75 -1.18 M-50.29 60.86 C-38.95 46.66, -26.3 31.72, 1.46 -0.44 M-42.17 56.51 C-28.82 42.47, -16.35 30.43, -2.65 10.55 M-41.44 55.41 C-26.15 37.93, -11.61 20.29, -2.11 11.51 M-3.96 9.75 C1.51 6.73, 5.43 5.43, 9.21 0.39 M-1.82 11.53 C1.08 7.76, 2.82 5.27, 7.96 -1.25 M-24.13 44.95 C-19.78 37.25, -15.26 34.25, -11.38 27.81 M-25.08 44.05 C-21.93 39.66, -18.12 35.17, -12.96 28.06 M4.16 10.04 C6.59 10.17, 7.23 4.46, 12.11 -1.13 M2.74 10.77 C5.59 8.96, 6.31 6.12, 14.47 -1.9 M10.07 9.81 C12.45 7.96, 13.51 5.38, 18.02 -0.1 M8.66 10.97 C10.72 8.03, 13.21 6.51, 18 -1.1" stroke="#0f206f" stroke-width="0.5" fill="none"></path><path d="M0 0 C0 0, 0 0, 0 0 M0 0 C0 0, 0 0, 0 0 M0.05 0.13 C-0.06 -0.51, 0.06 -0.93, 0.13 -1.72 M0 -0.04 C0.11 -0.42, 0.03 -0.88, 0.2 -1.67 M0.04 -1.74 C-0.01 -1.92, 0.24 -2.23, 0.24 -3.16 M0.2 -1.67 C0.14 -2.16, 0.06 -2.68, 0.03 -3.22 M0.02 -3.32 C0.02 -3.58, -0.02 -4.14, -0.07 -4.7 M0.01 -3.17 C0 -3.58, 0.03 -3.96, -0.04 -4.67 M-0.04 -4.61 C-0.09 -5.22, -0.14 -5.47, -0.4 -6.27 M-0.09 -4.7 C-0.13 -5.1, -0.27 -5.28, -0.37 -6.2 M-0.26 -6.05 C-0.82 -6.59, -1 -7.27, -1.31 -8.78 M-0.56 -6.26 C-0.79 -7.06, -1.09 -7.98, -1.42 -9.04 M-1.21 -9.15 C-1.65 -9.33, -1.94 -10.22, -2.9 -11.37 M-1.36 -8.97 C-1.74 -9.81, -2.31 -10.59, -2.76 -11.45 M-2.68 -11.51 C-3.13 -12.24, -3.58 -12.98, -4.5 -13.58 M-2.67 -11.55 C-3.47 -12.42, -3.94 -13.16, -4.47 -13.79 M-4.66 -13.68 C-4.95 -14.47, -5.53 -15, -6.26 -16.05 M-4.4 -13.75 C-4.82 -14.24, -5.03 -14.51, -6.11 -15.76 M-5.93 -15.99 C-6.47 -16.59, -7.06 -16.75, -8.06 -17.33 M-6.08 -15.86 C-6.86 -16.45, -7.26 -17.12, -7.89 -17.55 M-7.86 -17.6 C-8.31 -17.97, -8.9 -18.21, -9.5 -18.88 M-7.98 -17.48 C-8.28 -17.94, -8.61 -18.11, -9.53 -18.99 M-9.56 -18.86 C-9.57 -18.63, -9.85 -18.27, -10.37 -17.75 M-9.47 -18.91 C-9.77 -18.57, -10.05 -18.11, -10.41 -17.78 M-10.32 -17.78 C-10.59 -17.41, -10.68 -17.18, -11.1 -16.42 M-10.28 -17.84 C-10.6 -17.4, -10.82 -16.9, -11.11 -16.59 M-10.92 -16.52 C-11.3 -15.86, -11.55 -15.21, -11.69 -15.09 M-11.15 -16.6 C-11.26 -16.15, -11.37 -15.78, -11.66 -15.14 M-11.8 -15.12 C-11.83 -14.56, -12.14 -14.29, -12.28 -13.45 M-11.67 -15.04 C-11.91 -14.47, -12.07 -13.91, -12.16 -13.52 M-12.36 -13.33 C-12.32 -13.12, -12.3 -12.73, -12.56 -11.68 M-12.19 -13.53 C-12.37 -13.07, -12.47 -12.63, -12.7 -11.87 M-12.64 -11.96 C-12.7 -11.48, -12.66 -10.89, -12.72 -9.93 M-12.64 -11.84 C-12.63 -11.23, -12.77 -10.82, -12.94 -10.11 M-13.01 -9.95 C-12.94 -9.5, -13.12 -8.62, -13.22 -8.02 M-12.84 -10.08 C-12.88 -9.54, -13.03 -9.17, -13.11 -8.11 M-13.15 -8.2 C-12.99 -7.47, -12.92 -6.66, -13.24 -6.26 M-13.12 -8.25 C-13.03 -7.78, -13.09 -7.27, -13.13 -6.28 M-13.02 -6.21 C-13.16 -5.59, -13.06 -4.94, -12.93 -4.41 M-13.04 -6.4 C-12.93 -5.68, -13.02 -4.94, -12.86 -4.49 M-13.02 -4.59 C-12.73 -3.74, -12.59 -2.91, -12.68 -2.55 M-12.97 -4.42 C-12.9 -3.81, -12.77 -3.09, -12.65 -2.55 M-12.77 -2.66 C-12.45 -2, -12.26 -1.57, -12.38 -0.7 M-12.58 -2.66 C-12.54 -2, -12.43 -1.4, -12.14 -0.85 M-12.29 -0.7 C-11.89 -0.17, -11.68 0.59, -11.76 0.95 M-12.24 -0.76 C-12.02 -0.15, -11.84 0.46, -11.56 1.02 M-11.59 1.05 C-11.19 1.45, -11.1 2.3, -10.87 2.46 M-11.56 0.84 C-11.43 1.44, -11.15 2.15, -10.86 2.49 M-10.74 2.69 C-10.66 2.95, -10.42 3.33, -9.95 3.95 M-10.89 2.55 C-10.54 3.09, -10.2 3.68, -9.95 4.17 M-10.13 4.18 C-9.62 4.42, -9.39 4.9, -8.82 5.57 M-9.95 4.17 C-9.71 4.4, -9.24 4.82, -8.92 5.5 M-8.81 5.63 C-8.4 6.1, -7.91 6.31, -7.49 6.69 M-8.89 5.43 C-8.55 5.7, -8.27 6.05, -7.53 6.71 M-7.62 6.91 C-8.07 6.89, -8.28 7.24, -9.17 7.91 M-7.48 6.74 C-7.93 7, -8.39 7.17, -9.4 7.93 M-9.2 8.03 C-10.09 8.24, -10.57 8.74, -11.5 9.09 M-9.34 7.97 C-9.81 8.27, -10.26 8.59, -11.42 9.21 M-11.66 9.37 C-12.23 10.04, -13.28 10.16, -13.71 10.44 M-11.37 9.25 C-12.18 9.64, -12.99 10.07, -13.94 10.61 M-13.81 10.27 C-14.96 10.86, -15.49 11.03, -16.89 11.48 M-13.99 10.58 C-14.88 10.86, -15.97 11.27, -16.61 11.58 M-16.63 11.81 C-17.83 11.85, -18.55 11.94, -19.33 12.69 M-16.7 11.55 C-17.63 11.71, -18.45 12.11, -19.47 12.32 M-19.62 12.19 C-20.47 12.45, -20.79 12.42, -22.64 12.92 M-19.6 12.44 C-20.34 12.51, -21.19 12.88, -22.69 13.09 M-22.88 13.03 C-23.72 13, -24.31 13.15, -26 13.67 M-22.5 13.14 C-23.38 13.24, -24.12 13.1, -25.85 13.47 M-26.1 13.29 C-26.99 13.5, -27.87 13.37, -29.03 13.83 M-25.78 13.65 C-26.95 13.58, -28.08 13.47, -29.12 13.64 M-28.02 15.46 C-62.63 13.43, -97.89 11.35, -137.69 13.24 M-29.92 12.9 C-56.47 14.96, -82.79 15.12, -137.06 13.01 M-137.08 13.65 C-137.08 13.65, -137.08 13.65, -137.08 13.65 M-137.08 13.65 C-137.08 13.65, -137.08 13.65, -137.08 13.65 M-137.17 13.54 C-137.06 14.48, -136.94 15.9, -137.54 17.19 M-137.1 13.52 C-137.26 14.59, -137.2 15.35, -137.12 17.19 M-137.25 17.19 C-137.34 17.9, -137.43 19.34, -137.57 20.63 M-137.44 17.14 C-137.46 17.94, -137.45 18.77, -137.17 20.57 M-137.1 20.72 C-137.53 21.27, -137.46 21.88, -136.99 23.44 M-137.17 20.43 C-137.3 21.62, -137.06 22.56, -137.16 23.82 M-136.85 23.97 C-136.87 24.64, -136.46 25.89, -136.41 26.9 M-136.93 23.68 C-137 24.89, -136.54 26.14, -136.48 26.81 M-136.72 26.61 C-136.4 27.45, -136.12 28.36, -135.82 29.96 M-136.41 26.99 C-136.24 28.02, -135.88 29.29, -135.78 29.93 M-135.97 30.11 C-135.81 30.73, -135.56 31.91, -135.09 32.83 M-135.75 29.94 C-135.64 30.84, -135.55 31.39, -134.99 32.87 M-135.28 32.95 C-134.7 33.71, -134.46 34.39, -133.61 35.71 M-134.9 33.17 C-134.54 34.02, -134.36 35.02, -133.83 35.86 M-133.74 35.73 C-133.47 36.58, -133.53 36.95, -132.5 38.41 M-133.83 35.87 C-133.34 36.64, -133.19 37.78, -132.75 38.74 M-132.5 38.87 C-132.4 39.42, -131.69 40.26, -131.39 40.71 M-132.49 38.61 C-132.14 39.57, -131.66 40.36, -131.45 41.08 M-131.38 40.96 C-131.38 40.96, -131.38 40.96, -131.38 40.96 M-131.38 40.96 C-131.38 40.96, -131.38 40.96, -131.38 40.96 M-131.17 40.95 C-130.2 42.14, -129.21 43.54, -128.77 44.74 M-131.46 40.94 C-130.61 42.09, -130.23 42.78, -128.91 44.69 M-129.14 45.09 C-128.01 44.48, -127.67 44.79, -125.39 45.23 M-128.84 44.64 C-127.97 44.93, -127.18 44.73, -125.55 45.09 M-125.89 45.06 C-124.55 45.01, -123.34 45, -122.21 44.83 M-125.58 44.86 C-124.72 44.9, -123.83 45.11, -122.31 45.21 M-122.41 45.24 C-121.32 45.18, -120.46 44.8, -119.36 45.09 M-122.37 44.92 C-121.21 45.06, -120.13 45.24, -119.42 45.24 M-119.56 44.82 C-118.73 44.82, -117.65 44.89, -116.49 45.03 M-119.5 44.96 C-118.58 44.97, -117.98 44.99, -116.58 45.17 M-116.57 45.07 C-116.57 45.07, -116.57 45.07, -116.57 45.07 M-116.57 45.07 C-116.57 45.07, -116.57 45.07, -116.57 45.07 M-116.57 45.07 C-116.57 45.07, -116.57 45.07, -116.57 45.07 M-116.57 45.07 C-116.57 45.07, -116.57 45.07, -116.57 45.07 M-116.8 44.97 C-115.48 45.25, -114.7 45.06, -113.9 44.71 M-116.64 45.13 C-115.47 45.04, -114.37 44.86, -113.8 45.09 M-113.85 44.9 C-113 44.92, -112.34 44.73, -111.13 44.61 M-113.96 44.9 C-112.92 45.05, -112.11 44.97, -111.38 44.74 M-111.51 44.77 C-110.23 44.66, -109.3 44.55, -108.93 44.74 M-111.4 44.74 C-110.65 44.85, -110.15 44.78, -108.8 44.47 M-109.07 44.63 C-108.27 44.26, -107.46 44.45, -106.53 44.25 M-108.87 44.55 C-108.25 44.55, -107.47 44.52, -106.65 44.33 M-106.69 44.1 C-106.07 44.4, -105.25 44.3, -104.24 43.85 M-106.56 44.24 C-106.01 44.16, -105.5 44.23, -104.42 44.04 M-104.3 43.95 C-103.75 43.94, -102.91 43.72, -102.45 43.37 M-104.48 44.02 C-103.78 43.7, -102.96 43.55, -102.37 43.44 M-102.51 43.42 C-101.43 43.46, -100.97 42.92, -100.32 42.95 M-102.36 43.45 C-101.88 43.31, -101.31 43.15, -100.5 42.94 M-100.52 43.1 C-100.21 42.73, -99.66 42.67, -98.49 42.61 M-100.49 42.95 C-99.97 42.78, -99.33 42.76, -98.72 42.52 M-98.67 42.44 C-98.42 42.43, -98.17 42.48, -98.03 42.4 M-98.64 42.48 C-98.51 42.5, -98.31 42.46, -97.99 42.41 M-97.99 42.4 C-97.76 42.63, -97.57 42.73, -97.43 42.8 M-97.96 42.43 C-97.85 42.5, -97.72 42.61, -97.41 42.77 M-97.36 42.7 C-97.33 42.96, -97.17 43.06, -97.09 43.27 M-97.41 42.73 C-97.31 42.86, -97.25 43.03, -97.06 43.31 M-97.1 43.36 C-97.06 43.6, -97.08 43.89, -97.07 44.01 M-97.09 43.28 C-97.01 43.52, -97.04 43.8, -97.01 43.96 M-96.99 44.04 C-97.02 44.06, -97.1 44.21, -97.35 44.53 M-97.03 44.01 C-97.13 44.2, -97.22 44.43, -97.32 44.56 M-97.3 44.56 C-97.51 44.64, -97.55 44.73, -97.78 44.89 M-97.3 44.54 C-97.53 44.68, -97.67 44.82, -97.84 44.93 M-97.84 44.94 C-98.61 44.95, -99.23 45.34, -99.71 45.34 M-97.75 44.96 C-98.23 45.12, -98.72 45.1, -99.67 45.45 M-99.71 45.51 C-99.71 45.51, -99.71 45.51, -99.71 45.51 M-99.71 45.51 C-99.71 45.51, -99.71 45.51, -99.71 45.51 M-99.71 45.51 C-99.71 45.51, -99.71 45.51, -99.71 45.51 M-99.71 45.51 C-99.71 45.51, -99.71 45.51, -99.71 45.51 M-99.73 45.6 C-100.7 45.58, -101.72 45.91, -102.23 46.4 M-99.69 45.55 C-100.54 45.81, -101.5 45.94, -102.43 46.25 M-102.58 46.5 C-103.48 46.24, -104.22 46.45, -105.13 46.86 M-102.58 46.13 C-103.41 46.43, -104.55 46.7, -105.46 46.88 M-105.09 46.47 C-106.16 46.88, -107.56 47.18, -108.28 47.08 M-105.26 46.63 C-106.55 46.96, -107.72 47.07, -108.51 47.17 M-108.45 47.37 C-109.48 47.27, -110.42 47.12, -111.97 47.39 M-108.5 47.28 C-109.86 47.34, -111.43 47.37, -111.98 47.62 M-112.08 47.53 C-112.06 47.52, -112.03 47.52, -112.01 47.54 M-112.08 47.53 C-112.05 47.52, -112.02 47.53, -112.01 47.54 M-112.01 47.53 C-112.06 47.54, -112.11 47.53, -112.13 47.55 M-112.01 47.53 C-112.06 47.54, -112.09 47.54, -112.12 47.55 M-112.14 47.56 C-112.17 47.53, -112.29 47.58, -112.38 47.57 M-112.13 47.55 C-112.2 47.56, -112.27 47.56, -112.38 47.57 M-112.35 47.6 C-112.58 47.56, -112.7 47.55, -112.94 47.6 M-112.39 47.57 C-112.55 47.57, -112.72 47.58, -112.93 47.64 M-112.69 47.63 C-113.75 47.64, -115.05 47.91, -115.95 47.92 M-113.08 47.68 C-113.67 47.62, -114.52 47.77, -115.97 47.6 M-116.09 47.43 C-117.18 47.67, -118.4 47.83, -119.32 48.04 M-115.88 47.58 C-117.02 47.8, -118.25 47.61, -119.19 47.89 M-119.43 48.02 C-119.94 47.49, -120.64 48, -122.7 47.92 M-119.3 47.92 C-120.24 47.77, -121.03 47.87, -122.73 47.61 M-122.85 48.07 C-123.3 47.39, -124.51 47.56, -126.31 47.88 M-122.71 47.79 C-123.66 47.56, -124.28 47.55, -126.46 47.75 M-126.4 47.56 C-126.43 47.58, -126.44 47.59, -126.48 47.61 M-126.41 47.57 C-126.42 47.57, -126.44 47.58, -126.47 47.61 M-126.47 47.61 C-126.47 47.61, -126.47 47.61, -126.47 47.61 M-126.47 47.61 C-126.47 47.61, -126.47 47.61, -126.47 47.61 M-126.67 47.78 C-125.65 48.34, -125.45 49.04, -124.64 49.3 M-126.59 47.66 C-125.82 48.14, -125.3 48.77, -124.66 49.34 M-124.65 49.33 C-124.12 49.77, -123.56 50.3, -122.84 51.29 M-124.68 49.58 C-124.31 49.93, -123.9 50.23, -122.88 51.11 M-122.65 51.18 C-122.45 51.52, -121.95 52.06, -121.09 53.03 M-122.84 51.15 C-122.17 51.8, -121.81 52.25, -120.82 52.9 M-120.72 52.7 C-120.28 53.44, -119.49 53.76, -118.65 54.41 M-120.97 52.98 C-120.11 53.3, -119.61 53.82, -118.76 54.3 M-118.91 54.57 C-118.53 54.95, -117.98 54.91, -116.78 55.91 M-118.8 54.35 C-118.3 54.63, -117.89 54.98, -116.49 55.9 M-116.83 55.67 C-116.05 56.13, -115.17 56.29, -114.45 57.35 M-116.5 55.96 C-115.72 56.17, -115.05 56.8, -114.33 57.29 M-114.05 57 C-113.77 57.6, -112.76 58.02, -112.12 58.39 M-114.42 57.13 C-113.49 57.47, -112.92 57.96, -111.97 58.27 M-111.92 58.57 C-111.15 58.96, -110.12 59.36, -109.54 59.3 M-111.9 58.38 C-111.14 58.77, -110.28 59.14, -109.5 59.47 M-109.61 59.61 C-108.57 59.55, -107.73 60.13, -106.92 60.53 M-109.41 59.61 C-108.61 59.74, -107.84 60.09, -106.77 60.38 M-107 60.21 C-105.65 60.53, -104.63 60.89, -104.33 61.26 M-106.77 60.57 C-106.08 60.72, -105.1 61.12, -104.14 61.36 M-103.94 61.1 C-103.3 61.34, -102.11 61.87, -101.18 62.24 M-103.98 61.46 C-103.21 61.48, -102.53 61.56, -101.34 62.11 M-101.07 62 C-100.21 62.08, -99.44 62.51, -98.46 62.65 M-101.37 62.04 C-100.34 62.42, -99.12 62.57, -98.45 62.66 M-98.5 62.37 C-97.22 62.91, -96.39 62.88, -95.38 62.99 M-98.43 62.56 C-97.47 62.84, -96.21 62.92, -95.3 63.23 M-95.33 63.28 C-94.33 63.17, -93.51 63.63, -92.18 63.68 M-95.4 63.07 C-94.55 63.4, -93.58 63.35, -92.29 63.47 M-92.54 63.5 C-91.79 63.45, -90.79 63.33, -89.08 63.83 M-92.09 63.54 C-91.36 63.58, -90.31 63.63, -89.02 63.83 M-88.84 63.73 C-87.91 63.71, -86.42 63.67, -85.53 63.95 M-88.98 63.71 C-88.04 63.85, -86.95 63.84, -85.89 63.85 M-85.3 64.09 C-83.56 63.11, -81.51 63.56, -78.49 63.24 M-86.07 63.85 C-82.98 63.43, -80.67 63.34, -79.14 63.31 M-78.77 63.81 C-76.83 64.18, -76.1 63.25, -72.64 62.63 M-79.22 63.27 C-76.62 63.59, -74.78 63.44, -72.27 62.75 M-72.3 62.65 C-70.28 62.57, -67.39 62.16, -64.95 62.27 M-71.9 62.98 C-69.48 62.85, -67.28 62.27, -65.62 62.09 M-66.03 62.12 C-63.98 61.41, -62.71 60.97, -59.21 59.99 M-65.83 62.23 C-63.61 61.57, -62.17 61.6, -59.02 60.44 M-59.03 60.76 C-57.88 59.71, -56.06 60.14, -52.65 58.21 M-59.4 60.7 C-56.66 59.77, -54.21 59.25, -52.86 58.67 M-52.29 58.21 C-51.35 57.84, -48.34 56.88, -46.27 56.54 M-52.69 58.84 C-51.74 58.14, -49.92 57.81, -46.74 56.89 M-47.04 57.05 C-45.26 55.27, -43.78 54.98, -41.18 53.32 M-46.65 56.8 C-45.66 56.26, -44.33 55.68, -41.14 53.69 M-41.32 53.89 C-39.45 53.29, -38.13 51.68, -35.79 51.28 M-40.92 54.22 C-39.68 53.11, -38 52.39, -35.43 50.73 M-36.05 50.25 C-34.64 50.27, -33 49.29, -29.98 47.45 M-35.76 51.04 C-34.05 49.56, -32.33 48.99, -30.14 47.5 M-30.26 47.43 C-28.71 46.08, -28.19 45.13, -26.04 43.9 M-30.38 47.33 C-28.12 45.87, -26.53 43.95, -25.62 43.36 M-25.9 43.44 C-24.71 42.57, -23.89 41.97, -21.45 38.93 M-25.54 43.42 C-24.11 42.37, -22.76 40.61, -20.51 39.29 M-20.51 39.3 C-19.76 37.66, -17.35 35.94, -16.09 34.02 M-20.62 39.12 C-19.64 37.78, -18.59 37.22, -16.75 34.22 M-16.2 34.41 C-15.78 33.46, -15.24 32.7, -14.58 31.57 M-16.36 34.34 C-16.01 33.6, -15.58 32.91, -14.34 31.48 M-14.23 31.64 C-13.66 30.58, -13.21 29.75, -12.55 28.89 M-14.45 31.67 C-13.69 30.58, -13.11 29.64, -12.42 28.82 M-12.78 29.19 C-11.83 27.53, -11.26 27.04, -10.44 25.97 M-12.66 28.91 C-12.03 27.87, -11.31 26.91, -10.74 25.91 M-10.47 26.07 C-10.23 25.35, -9.54 24.32, -9.16 23.12 M-10.78 25.95 C-10.29 25.11, -9.74 24.58, -8.92 23 M-8.86 23.28 C-8.66 22.31, -8.14 20.97, -7.1 19.7 M-8.85 23.15 C-8.33 22.01, -7.71 20.8, -7.12 20.18 M-7.25 19.78 C-6.63 19.23, -6.31 17.75, -5.4 16.53 M-7.4 20.21 C-7.1 19.36, -6.75 18.66, -5.73 16.7 M-5.92 16.95 C-5.39 15.43, -4.84 14.45, -4.06 13.88 M-5.62 16.94 C-5.36 16.07, -5.09 15.13, -4.14 13.38 M-4.19 13.72 C-4.2 12.44, -3.09 11.81, -3.1 10.31 M-4.4 13.48 C-4.06 12.63, -3.46 12.04, -2.84 10.2 M-3.15 10.46 C-1.7 10.31, -0.9 9.9, 1.1 10 M-2.72 10.11 C-1.89 10.07, -0.68 10.12, 0.99 10.32 M0.96 10.59 C1.58 10.52, 3.22 10.62, 4.3 10.35 M0.96 10.49 C1.82 10.4, 2.98 10.27, 4.35 10.1 M4.45 10.21 C5.61 10.33, 6.41 10.02, 8.03 9.87 M4.35 10.27 C5.02 10.11, 5.76 9.86, 7.72 9.61 M7.72 9.81 C8.41 9.49, 9.8 9.18, 10.83 8.41 M7.99 9.76 C9 9.32, 10.27 9.07, 11.13 8.79 M11.42 8.51 C12.32 8.13, 13.3 7.72, 13.79 6.99 M11.13 8.67 C12.13 8.16, 13.36 7.82, 14.13 7.35 M14.23 7.43 C14.69 6.92, 15.25 6.79, 15.34 6.39 M14.06 7.32 C14.51 7.06, 14.89 6.79, 15.48 6.48 M15.57 6.36 C15.91 6.03, 16.52 5.52, 16.67 5.34 M15.49 6.48 C15.88 6.07, 16.21 5.84, 16.78 5.39 M16.81 5.45 C17.16 5.17, 17.55 4.86, 17.9 4.22 M16.8 5.37 C17.13 5.16, 17.52 4.72, 17.91 4.34 M18.07 4.15 C18.55 3.81, 18.84 3.2, 19.15 2.92 M18.06 4.23 C18.23 3.89, 18.58 3.65, 19.14 3.12 M19.2 2.94 C19.38 2.78, 19.67 2.4, 20.14 1.72 M19.15 3.1 C19.32 2.54, 19.73 2.08, 20.06 1.62 M20.16 1.56 C20.39 1.13, 20.58 0.75, 21.08 0.03 M20.11 1.7 C20.33 1.17, 20.76 0.58, 20.89 0.11 M21 0.41 C20.56 -0.15, 19.4 -0.32, 18.38 -1.03 M20.86 0.02 C19.86 -0.39, 19 -0.9, 18.3 -1.23 M18.44 -1.11 C17.25 -1.5, 16.1 -1.58, 15.19 -2.19 M18.26 -1.19 C17.29 -1.37, 16.1 -1.7, 15.57 -1.82 M15.73 -2.08 C14.67 -2.01, 13.85 -2.02, 12.61 -2.24 M15.53 -1.99 C14.74 -1.96, 14.25 -2.02, 12.66 -2.39 M12.87 -2.52 C11.86 -2.08, 10.77 -2.59, 9.57 -2.57 M12.49 -2.35 C11.89 -2.44, 11.34 -2.32, 9.88 -2.47 M9.91 -2.57 C9.28 -2.3, 8.14 -2.46, 7.14 -2.31 M9.67 -2.33 C8.69 -2.36, 7.76 -2.2, 7 -2.04 M7.08 -2.22 C6.23 -1.71, 5.43 -1.83, 4.34 -1.79 M7.16 -2.24 C6.15 -2.02, 5.45 -1.74, 4.56 -1.6 M4.59 -1.81 C3.66 -1.47, 3.01 -1.31, 2.22 -1.08 M4.53 -1.65 C3.92 -1.35, 3.52 -1.42, 2.16 -0.99 M2.3 -0.8 C1.52 -0.43, 0.58 -0.46, -0.07 -0.03 M2.19 -0.92 C1.4 -0.54, 0.7 -0.18, 0.01 -0.04 M0 0 C0 0, 0 0, 0 0 M0 0 C0 0, 0 0, 0 0" stroke="#0f206f" stroke-width="1" fill="none"></path></g></g><mask></mask><g stroke-linecap="round"><g transform="translate(1260.574271877214 28.15506477009515) rotate(0 7.264619753717284 7.310879311926698)" fill-rule="evenodd"><path d="M0 0 C0 0, 0 0, 0 0 M0 0 C0 0, 0 0, 0 0 M-0.2 6.83 C1.05 5.32, 2.29 2.96, 5.66 0.79 M-0.31 6.16 C1.37 4.34, 3.35 2.12, 5.06 0.57 M0.95 12.33 C2.65 10.22, 5.79 6.61, 9.27 -1.52 M0.56 11.75 C3.27 8.82, 7.47 4.55, 11.04 0.08 M0.49 18.1 C5.21 11.8, 13.29 3.02, 17.34 1.19 M1.56 15.31 C6.64 10.98, 10.98 4.4, 15.53 -0.2 M6.47 16.41 C9.01 12.08, 12.4 10.17, 15.68 5.8 M7.23 16.37 C8.85 14.03, 12.08 11.12, 15.03 6.4 M12.69 16.53 C13.53 15.25, 14.73 13.87, 15.29 13.31 M12.55 16.24 C12.92 15.6, 13.72 14.62, 15.2 13.06" stroke="#0f206f" stroke-width="0.5" fill="none"></path><path d="M-1.26 1.15 C3.46 -1.28, 10.34 0.61, 15.6 0.92 M0.04 0.09 C4.53 0, 9.28 0.31, 15.18 0.21 M15.79 -0.95 C14.73 3.61, 15.74 7.83, 13.69 14.04 M14.2 0.71 C14.72 4.03, 14.39 9.27, 14.14 14.14 M13.52 13.51 C10.77 15.82, 6.74 15.96, 0.38 15.09 M14.18 14.98 C9.2 14.5, 3.87 14.24, -0.17 14.31 M-1.16 14.55 C0.26 9.52, -1.25 4.76, 0.22 -0.96 M0.26 14.06 C-0.14 11.72, -0.31 9.09, 0.53 -0.3 M0 0 C0 0, 0 0, 0 0 M0 0 C0 0, 0 0, 0 0 M0 0 C0 0, 0 0, 0 0 M0 0 C0 0, 0 0, 0 0" stroke="#0f206f" stroke-width="1" fill="none"></path></g></g><mask></mask><g stroke-linecap="round"><g transform="translate(1277.5836518357432 11.312770169618346) rotate(0 7.273570752163778 7.111524121853805)" fill-rule="evenodd"><path d="M0 0 C0 0, 0 0, 0 0 M0 0 C0 0, 0 0, 0 0 M0.01 6.36 C1.11 5.06, 1.67 4.4, 3.29 2.8 M-0.41 6.28 C0.38 5.65, 0.93 4.91, 3.15 2.38 M0.35 12.32 C2.82 10.5, 4.16 5.88, 6.89 3.19 M-0.08 11.96 C3.57 9.15, 6.22 5.46, 8.09 3.38 M3.77 14.44 C6.84 13.44, 7.46 9.71, 16.48 1.68 M0.97 15.92 C6.66 10.4, 10.1 6.48, 15.09 0.57 M6.7 15.98 C8.39 13.36, 12.51 10.35, 14.43 6.37 M6.66 16.15 C8.84 14.9, 10.42 11.95, 15.03 7.13 M12.86 16.22 C13.26 15.79, 13.57 14.97, 15.28 12.79 M12.57 16.05 C13.63 15.07, 14.34 13.85, 15.03 13.17" stroke="#0f206f" stroke-width="0.5" fill="none"></path><path d="M1.15 -1.2 C3.47 1.16, 10.02 1.14, 15.51 0.39 M0.09 -0.24 C5.38 -0.26, 11.18 0.58, 14.8 -0.25 M13.64 0.21 C14.38 4.86, 14.73 6.36, 14.04 14.52 M15.3 0.1 C14.32 4.42, 15.25 8.85, 14.14 14.69 M13.51 15.35 C11.61 15.81, 7.45 14.86, 0.5 15.54 M14.98 14.53 C10.19 14.44, 5.76 14.34, -0.28 14.94 M-0.04 14.77 C0.08 9.66, 0.39 7.6, -0.96 -1.31 M-0.53 14.33 C0.32 11.03, 0.76 8.89, -0.3 -0.48 M0 0 C0 0, 0 0, 0 0 M0 0 C0 0, 0 0, 0 0 M0 0 C0 0, 0 0, 0 0 M0 0 C0 0, 0 0, 0 0" stroke="#0f206f" stroke-width="1" fill="none"></path></g></g><mask></mask><g stroke-linecap="round"><g transform="translate(1277.3930080414952 28.15633686443357) rotate(0 7.0207667103654785 7.320371152846278)" fill-rule="evenodd"><path d="M0 0 C0 0, 0 0, 0 0 M0 0 C0 0, 0 0, 0 0 M-0.3 6.73 C0.74 4.93, 2.41 4.05, 3.2 2.14 M-0.38 6.41 C1.06 4.81, 2.39 3.55, 2.77 2.58 M0.42 12.43 C2.78 9.65, 2.34 7.14, 8.21 3.92 M0.05 12.51 C3.09 9.41, 5.25 6.56, 8.4 2.75 M0.11 17.72 C8.62 8.43, 14.4 4.56, 16.97 0.41 M1.58 16.89 C5.81 10.61, 11.62 4.46, 15.86 0.65 M6.27 15.28 C9.59 13.48, 12.52 9.47, 15 5.61 M6.44 16.63 C9.09 14.33, 10.06 12.07, 15.76 6.23 M12.55 16.33 C13.47 15.24, 14.01 14.73, 14.76 13.5 M12.38 16.27 C13.53 14.86, 14.44 13.91, 15.14 12.95" stroke="#0f206f" stroke-width="0.5" fill="none"></path><path d="M-1.2 -1.19 C6.25 0.58, 11.45 0.8, 14.98 1.11 M-0.24 -0.1 C3.14 0.19, 7.37 0.2, 14.34 -0.37 M14.8 -0.25 C15.93 4.9, 13.81 9.07, 14.52 14.86 M14.69 -0.28 C14.29 5.07, 14.06 8.39, 14.7 14.55 M15.36 15.9 C12.34 15.93, 7.82 14.98, 0.95 14.38 M14.53 14.36 C8.73 14.18, 2.83 14.39, 0.35 14.2 M0.18 14.6 C-1.21 11.18, 0.33 6.15, -1.31 -1.26 M-0.26 14.78 C-0.49 12.15, 0.48 8.15, -0.48 -0.51 M0 0 C0 0, 0 0, 0 0 M0 0 C0 0, 0 0, 0 0 M0 0 C0 0, 0 0, 0 0 M0 0 C0 0, 0 0, 0 0" stroke="#0f206f" stroke-width="1" fill="none"></path></g></g><mask></mask><g stroke-linecap="round"><g transform="translate(1294.252732546896 28.149472136163013) rotate(0 7.320019863387074 7.350816350699205)" fill-rule="evenodd"><path d="M0 0 C0 0, 0 0, 0 0 M0 0 C0 0, 0 0, 0 0 M0.27 6.2 C1.08 5.22, 3.37 2.97, 4.22 1.14 M-0.24 6.43 C1.12 4.76, 3.01 2.55, 4.91 -0.01 M0.65 13.45 C3.13 6.42, 5.99 3.82, 11.88 0.11 M0.75 12.81 C4.07 8.2, 7.71 4.05, 10.32 0.68 M3.38 17.49 C3.45 14.34, 8.96 10.28, 15.71 1.46 M2.55 15.19 C5.69 11.82, 8.94 7.84, 15.95 0.46 M5.57 16.6 C9.18 14.22, 10.56 10.86, 14.24 5.58 M6.93 17.05 C9.79 12.71, 12.7 9.9, 14.86 6.46 M12.66 16.48 C13.28 15.26, 14.48 13.67, 15.48 13.35 M12.6 16.27 C13.16 15.24, 14.17 14.15, 14.93 13.14" stroke="#0f206f" stroke-width="0.5" fill="none"></path><path d="M-1.19 1.04 C3.82 1.13, 7.16 0.51, 15.7 -0.98 M-0.1 -0.26 C4.66 0.63, 9.12 -0.21, 14.22 0.22 M14.34 1.22 C14.59 4.67, 13.95 11.08, 14.86 14.63 M14.31 -0.23 C15.38 3.16, 14.28 7.32, 14.55 14.19 M15.9 15.91 C12.73 15.05, 8.47 15.61, -0.21 16.01 M14.36 14.52 C10.54 14.41, 7.18 14.93, -0.39 14.27 M0.01 13.26 C0.33 11.58, -0.96 6.83, -1.26 -1.3 M0.19 14.15 C0.73 10.22, -0.19 4.31, -0.51 0.32 M0 0 C0 0, 0 0, 0 0 M0 0 C0 0, 0 0, 0 0 M0 0 C0 0, 0 0, 0 0 M0 0 C0 0, 0 0, 0 0" stroke="#0f206f" stroke-width="1" fill="none"></path></g></g><mask></mask><g stroke-linecap="round"><g transform="translate(1294.239878067839 11.131847553689198) rotate(0 7.294047498135569 8.017680552757028)" fill-rule="evenodd"><path d="M0 0 C0 0, 0 0, 0 0 M0 0 C0 0, 0 0, 0 0 M-0.45 6.15 C2.27 4.66, 3.74 1.32, 5.76 0.27 M-0.23 6.23 C1.1 5.15, 1.89 3.43, 4.62 0.56 M1.54 11.38 C2.09 6.68, 7.07 5.57, 10.77 0.82 M0.9 12.23 C3.33 8.89, 6.22 5.27, 11.35 -0.57 M3.15 14.74 C9.17 10.65, 14.26 3.59, 16.75 -0.24 M0.85 16.14 C4.73 12.17, 8 9.64, 15.75 0.05 M6.89 16.55 C9.67 12.84, 11.47 9.8, 14.21 7.52 M7.34 16.39 C8.89 13.51, 11.97 10.65, 15.09 7.07 M12.81 16.05 C13.7 15.11, 14.23 14.1, 15.32 13.28 M12.6 15.95 C13.52 15, 14.38 13.83, 15.11 13.17" stroke="#0f206f" stroke-width="0.5" fill="none"></path><path d="M1.04 0.7 C6.54 1.04, 11.44 1.22, 13.61 0.08 M-0.26 0.21 C5.14 0.23, 8.85 -0.35, 14.81 0.6 M15.81 0.1 C13.71 2.88, 14.54 7.12, 14.63 13.82 M14.36 0.65 C14.16 5.34, 14.71 11.54, 14.19 14.06 M15.91 16.04 C11.68 15.22, 8.95 14.51, 1.42 13.78 M14.52 14.1 C9.26 14.26, 4.62 14.16, -0.32 14.01 M-1.33 14.92 C0.2 9.29, -1.33 4.65, -1.3 0.52 M-0.44 15.22 C0.59 10.97, -0.43 7.44, 0.32 0.56 M0 0 C0 0, 0 0, 0 0 M0 0 C0 0, 0 0, 0 0 M0 0 C0 0, 0 0, 0 0 M0 0 C0 0, 0 0, 0 0" stroke="#0f206f" stroke-width="1" fill="none"></path></g></g><mask></mask><g stroke-linecap="round"><g transform="translate(1311.0694150359905 11.308212298288112) rotate(0 7.611767349435013 7.474574046126222)" fill-rule="evenodd"><path d="M0 0 C0 0, 0 0, 0 0 M0 0 C0 0, 0 0, 0 0 M-0.5 7.07 C1.67 4.93, 2.01 3.64, 4.89 -0.12 M-0.43 6.47 C1.27 4.48, 2.31 2.98, 5.19 0.43 M-0.53 10.68 C2 8.32, 8.14 4.28, 11.48 -0.61 M0.32 12.45 C3.17 9, 5.75 5.72, 10.09 0.74 M0.4 17.9 C5.52 14.06, 7.69 10.45, 15.05 -1.41 M1.81 16.09 C4.98 12.21, 9.61 7.75, 15.34 0.23 M6.84 16.86 C8.19 13.65, 10.19 10.34, 16.16 6.39 M6.68 16.2 C8.54 14.51, 10.43 11.47, 15.71 7.36 M12.38 16.33 C13.48 14.82, 14.52 14.41, 15.25 13.33 M12.28 16.25 C13.05 15.41, 13.61 14.61, 15.14 13.04" stroke="#0f206f" stroke-width="0.5" fill="none"></path><path d="M0.7 1.01 C4.1 0.29, 7.47 -1.09, 14.67 0.18 M0.21 0.59 C4.11 -0.2, 7.42 0.27, 15.19 -0.48 M14.69 -0.9 C14.02 4.52, 14.84 9.22, 13.82 16 M15.24 -0.45 C14.09 4.68, 14.49 8.75, 14.06 14.05 M16.04 14.97 C9.95 15.67, 4.1 16.14, -0.81 15.37 M14.1 14.42 C10.06 14.93, 5.7 14.26, -0.58 14.57 M0.33 14.81 C-0.96 8.72, -1.26 4.17, 0.52 -1.06 M0.63 15.12 C-0.34 10.26, -0.55 7.2, 0.56 0.46 M0 0 C0 0, 0 0, 0 0 M0 0 C0 0, 0 0, 0 0 M0 0 C0 0, 0 0, 0 0 M0 0 C0 0, 0 0, 0 0" stroke="#0f206f" stroke-width="1" fill="none"></path></g></g><mask></mask><g stroke-linecap="round"><g transform="translate(1291.4077621148995 66.41471860682915) rotate(0 0.05285405718927905 4.025201546748548)" fill-rule="evenodd"><path d="M-2.97 1.39 C-2.97 1.39, -2.97 1.39, -2.97 1.39 M-2.97 1.39 C-2.97 1.39, -2.97 1.39, -2.97 1.39 M2.41 7.39 C2.88 6.85, 3.35 6.31, 3.72 5.88 M2.41 7.39 C2.74 7.02, 3.06 6.64, 3.72 5.88" stroke="#0f206f" stroke-width="1" fill="none"></path><path d="M0 0 C0 0, 0 0, 0 0 M0 0 C0 0, 0 0, 0 0 M0 0 C0.31 0.04, 0.62 0.08, 1.1 0.13 M0 0 C0.29 0.04, 0.58 0.07, 1.1 0.13 M1.1 0.13 C1.48 0.29, 1.86 0.45, 2.08 0.54 M1.1 0.13 C1.37 0.24, 1.63 0.35, 2.08 0.54 M2.08 0.54 C2.32 0.73, 2.57 0.92, 2.89 1.16 M2.08 0.54 C2.34 0.74, 2.61 0.95, 2.89 1.16 M2.89 1.16 C3.13 1.47, 3.37 1.78, 3.51 1.97 M2.89 1.16 C3.05 1.38, 3.22 1.59, 3.51 1.97 M3.51 1.97 C3.62 2.21, 3.73 2.46, 3.92 2.9 M3.51 1.97 C3.64 2.27, 3.78 2.57, 3.92 2.9 M3.92 2.9 C3.98 3.27, 4.04 3.64, 4.08 3.91 M3.92 2.9 C3.96 3.15, 4 3.4, 4.08 3.91 M4.08 3.91 C4.04 4.29, 4 4.68, 3.97 4.96 M4.08 3.91 C4.05 4.23, 4.02 4.55, 3.97 4.96 M3.97 4.96 C3.84 5.3, 3.7 5.64, 3.57 5.99 M3.97 4.96 C3.82 5.35, 3.67 5.74, 3.57 5.99 M3.57 5.99 C3.32 6.32, 3.07 6.65, 2.91 6.86 M3.57 5.99 C3.32 6.31, 3.08 6.64, 2.91 6.86 M2.91 6.86 C2.74 6.99, 2.57 7.12, 2.07 7.51 M2.91 6.86 C2.65 7.07, 2.38 7.27, 2.07 7.51 M2.07 7.51 C1.72 7.65, 1.38 7.8, 1.08 7.92 M2.07 7.51 C1.7 7.66, 1.34 7.81, 1.08 7.92 M1.08 7.92 C0.72 7.96, 0.36 8.01, 0 8.05 M1.08 7.92 C0.74 7.96, 0.4 8, 0 8.05 M0 8.05 C-0.34 8, -0.69 7.95, -1.1 7.89 M0 8.05 C-0.42 7.99, -0.84 7.93, -1.1 7.89 M-1.1 7.89 C-1.3 7.8, -1.5 7.71, -2.06 7.46 M-1.1 7.89 C-1.42 7.75, -1.73 7.61, -2.06 7.46 M-2.06 7.46 C-2.36 7.21, -2.66 6.97, -2.86 6.81 M-2.06 7.46 C-2.26 7.29, -2.46 7.13, -2.86 6.81 M-2.86 6.81 C-3.06 6.53, -3.27 6.25, -3.46 5.99 M-2.86 6.81 C-3.03 6.57, -3.21 6.33, -3.46 5.99 M-3.46 5.99 C-3.55 5.77, -3.64 5.55, -3.84 5.05 M-3.46 5.99 C-3.56 5.75, -3.65 5.52, -3.84 5.05 M-3.84 5.05 C-3.89 4.67, -3.94 4.3, -3.98 4.03 M-3.84 5.05 C-3.88 4.79, -3.91 4.52, -3.98 4.03 M-3.98 4.03 C-3.94 3.77, -3.91 3.5, -3.84 2.99 M-3.98 4.03 C-3.95 3.81, -3.92 3.59, -3.84 2.99 M-3.84 2.99 C-3.68 2.61, -3.52 2.23, -3.4 1.96 M-3.84 2.99 C-3.73 2.73, -3.62 2.46, -3.4 1.96 M-3.4 1.96 C-3.16 1.65, -2.91 1.33, -2.77 1.15 M-3.4 1.96 C-3.28 1.8, -3.15 1.63, -2.77 1.15 M-2.77 1.15 C-2.49 0.94, -2.21 0.73, -1.96 0.54 M-2.77 1.15 C-2.59 1.02, -2.41 0.88, -1.96 0.54 M-1.96 0.54 C-1.71 0.43, -1.46 0.33, -1.02 0.15 M-1.96 0.54 C-1.73 0.44, -1.51 0.35, -1.02 0.15 M-1.02 0.15 C-0.69 0.1, -0.36 0.05, 0 0 M-1.02 0.15 C-0.74 0.11, -0.46 0.07, 0 0 M0 0 C0 0, 0 0, 0 0 M0 0 C0 0, 0 0, 0 0" stroke="#0f206f" stroke-width="2" fill="none"></path></g></g><mask></mask><g stroke-linecap="round"><g transform="translate(1311.2633296530737 27.969407060012855) rotate(0 7.0444542745013905 7.6678906068020325)" fill-rule="evenodd"><path d="M0 0 C0 0, 0 0, 0 0 M0 0 C0 0, 0 0, 0 0 M0.01 6.58 C0.17 5.81, 1.5 3.99, 2.78 2.65 M-0.13 6.15 C0.72 5, 1.9 4.12, 3.08 2.7 M-0.98 12.25 C4.16 8.7, 6.92 4.65, 7.85 3.92 M0.22 12.43 C3 8.95, 5.94 5.4, 7.49 3.45 M2.7 17.53 C7.08 11.39, 11.46 2.73, 15.1 1.75 M1.31 16.42 C4.94 13.13, 7.11 9.72, 15.19 -0.64 M5.9 16.18 C8.31 12.38, 12.83 10.19, 14.59 6.92 M6.5 16.94 C9.58 12.6, 13.67 9.78, 15.49 7.04 M12.66 15.81 C13.87 15.19, 14.65 14.02, 14.91 13.39 M12.41 16.19 C13.29 15.04, 14.47 13.83, 15.18 13.19" stroke="#0f206f" stroke-width="0.5" fill="none"></path><path d="M0.92 0.39 C6.52 -1.09, 10.91 0.08, 14.11 -0.2 M0.21 -0.25 C3.49 0.1, 8.32 -0.59, 14.7 -0.13 M14.04 -0.07 C14.87 5.64, 13.83 12.62, 14.79 14.03 M14.14 0.1 C14.68 3.52, 14.19 7.3, 14.97 15.25 M15.09 15.54 C8.68 16.04, 2.37 15.41, -0.12 14.12 M14.31 14.94 C9.97 14.24, 5.54 14.54, 0.09 14.6 M-0.96 13.28 C-1.29 10.24, 0.49 7.43, -0.52 0.39 M-0.3 14.11 C-0.63 11.41, 0.43 8.05, -0.55 0.62 M0 0 C0 0, 0 0, 0 0 M0 0 C0 0, 0 0, 0 0 M0 0 C0 0, 0 0, 0 0 M0 0 C0 0, 0 0, 0 0" stroke="#0f206f" stroke-width="1" fill="none"></path></g></g><mask></mask><g stroke-linecap="round"><g transform="translate(1328.3800953454959 27.597085809811944) rotate(0 7.111584288543554 7.186610102683147)" fill-rule="evenodd"><path d="M0 0 C0 0, 0 0, 0 0 M0 0 C0 0, 0 0, 0 0 M0.03 5.63 C1.88 4.65, 2.04 2.73, 5.02 0.42 M-0.66 6.33 C0.71 5.02, 2.51 3.35, 5.12 0.71 M0.41 13.29 C3.09 9.87, 5.09 5.69, 11.87 1.5 M0.66 11.73 C4.18 7.58, 7.63 3.52, 11.25 0.49 M3.2 16.26 C5.98 11.93, 6.25 8.37, 17.04 -1.65 M2.09 16.5 C6.07 11.27, 9.93 6.42, 14.65 0.38 M6.47 15.42 C8.23 14.44, 11.6 9.92, 15.55 7.75 M7.23 16.04 C8.98 14.2, 12.26 11.26, 15.67 7.27 M12.14 16.52 C13.41 15.45, 14.12 14.26, 15.36 13.39 M12.52 15.97 C13.01 15.58, 13.45 15, 15.16 13.05" stroke="#0f206f" stroke-width="0.5" fill="none"></path><path d="M0.39 1.11 C4.09 -0.02, 10.32 -0.57, 14.39 -0.51 M-0.25 -0.37 C5.01 0.56, 9.12 0.06, 14.46 0.61 M14.52 0.27 C14.54 3.7, 15.92 9.15, 14.03 14.13 M14.69 -0.04 C14.1 5.15, 13.96 11.75, 15.25 15.25 M15.54 14.38 C10.18 13.83, 3.73 14.52, -0.47 14.45 M14.94 14.2 C10.88 13.96, 7.78 14.62, 0.01 13.93 M-1.31 13.33 C-1.33 10.41, -1.08 4.65, 0.39 -0.88 M-0.48 14.08 C0.21 9.51, 0.35 2.77, 0.62 0.11 M0 0 C0 0, 0 0, 0 0 M0 0 C0 0, 0 0, 0 0 M0 0 C0 0, 0 0, 0 0 M0 0 C0 0, 0 0, 0 0" stroke="#0f206f" stroke-width="1" fill="none"></path></g></g><mask></mask><g stroke-linecap="round"><g transform="translate(1230.846762920712 54.09403741358875) rotate(0 93.61837506929339 -3.886795250231131)" fill-rule="evenodd"><path d="M0 0 C0 0, 0 0, 0 0 M0 0 C0 0, 0 0, 0 0 M4.99 0.36 C5.48 -0.21, 5.98 -0.78, 6.3 -1.15 M4.99 0.36 C5.36 -0.06, 5.73 -0.49, 6.3 -1.15 M11.55 -7.19 C11.55 -7.19, 11.55 -7.19, 11.55 -7.19 M11.55 -7.19 C11.55 -7.19, 11.55 -7.19, 11.55 -7.19 M10.63 -0.03 C11.72 -1.28, 12.8 -2.53, 14.57 -4.56 M10.63 -0.03 C11.87 -1.46, 13.11 -2.88, 14.57 -4.56 M15.62 0.33 C16.59 -0.79, 17.56 -1.91, 18.9 -3.45 M15.62 0.33 C16.4 -0.57, 17.18 -1.47, 18.9 -3.45 M21.26 -0.07 C21.86 -0.76, 22.46 -1.45, 23.23 -2.33 M21.26 -0.07 C21.79 -0.68, 22.32 -1.29, 23.23 -2.33 M26.25 0.29 C26.79 -0.34, 27.34 -0.97, 28.22 -1.97 M26.25 0.29 C26.68 -0.21, 27.12 -0.71, 28.22 -1.97 M31.89 -0.1 C32.49 -0.8, 33.09 -1.49, 33.86 -2.37 M31.89 -0.1 C32.37 -0.66, 32.85 -1.21, 33.86 -2.37 M36.88 0.26 C37.94 -0.97, 39.01 -2.19, 42.13 -5.78 M36.88 0.26 C38.88 -2.05, 40.89 -4.36, 42.13 -5.78 M42.52 -0.14 C43.07 -0.77, 43.62 -1.4, 45.14 -3.16 M42.52 -0.14 C43.08 -0.78, 43.64 -1.43, 45.14 -3.16 M47.51 0.22 C48.28 -0.66, 49.04 -1.55, 49.48 -2.04 M47.51 0.22 C47.9 -0.23, 48.3 -0.69, 49.48 -2.04 M53.15 -0.17 C53.6 -0.69, 54.06 -1.22, 54.46 -1.68 M53.15 -0.17 C53.59 -0.68, 54.03 -1.18, 54.46 -1.68 M58.14 0.19 C58.27 0.03, 58.41 -0.12, 58.79 -0.57 M58.14 0.19 C58.32 -0.03, 58.51 -0.24, 58.79 -0.57 M63.78 -0.21 C64 -0.46, 64.23 -0.72, 64.44 -0.96 M63.78 -0.21 C63.94 -0.39, 64.1 -0.57, 64.44 -0.96 M68.77 0.15 C69.94 -1.2, 71.12 -2.56, 72.05 -3.62 M68.77 0.15 C69.66 -0.87, 70.55 -1.9, 72.05 -3.62 M74.41 -0.24 C75.39 -1.37, 76.37 -2.5, 79 -5.52 M74.41 -0.24 C76.03 -2.11, 77.66 -3.98, 79 -5.52 M79.4 0.12 C80.07 -0.65, 80.74 -1.43, 82.68 -3.65 M79.4 0.12 C80.48 -1.13, 81.57 -2.38, 82.68 -3.65 M85.04 -0.28 C85.59 -0.91, 86.15 -1.55, 87.01 -2.54 M85.04 -0.28 C85.75 -1.09, 86.46 -1.91, 87.01 -2.54 M90.03 0.08 C90.35 -0.28, 90.67 -0.65, 91.34 -1.43 M90.03 0.08 C90.37 -0.31, 90.71 -0.7, 91.34 -1.43 M95.67 -0.31 C95.84 -0.5, 96 -0.69, 96.33 -1.07 M95.67 -0.31 C95.9 -0.57, 96.12 -0.83, 96.33 -1.07 M100.66 0.05 C101.24 -0.62, 101.83 -1.3, 103.28 -2.97 M100.66 0.05 C101.66 -1.11, 102.67 -2.26, 103.28 -2.97 M106.3 -0.34 C107.84 -2.11, 109.38 -3.88, 110.89 -5.63 M106.3 -0.34 C107.45 -1.66, 108.59 -2.98, 110.89 -5.63 M111.29 0.02 C112.05 -0.86, 112.81 -1.74, 114.57 -3.76 M111.29 0.02 C112.14 -0.96, 112.99 -1.94, 114.57 -3.76 M116.27 0.38 C117.14 -0.62, 118 -1.61, 118.9 -2.64 M116.27 0.38 C116.85 -0.28, 117.42 -0.94, 118.9 -2.64 M121.92 -0.02 C122.06 -0.18, 122.19 -0.34, 122.57 -0.77 M121.92 -0.02 C122.16 -0.3, 122.41 -0.58, 122.57 -0.77 M126.91 0.34 C127.12 0.09, 127.34 -0.16, 127.56 -0.41 M126.91 0.34 C127.08 0.14, 127.25 -0.05, 127.56 -0.41 M132.55 -0.05 C132.7 -0.23, 132.86 -0.41, 133.2 -0.81 M132.55 -0.05 C132.71 -0.24, 132.87 -0.42, 133.2 -0.81 M137.54 0.31 C138 -0.23, 138.46 -0.76, 139.5 -1.96 M137.54 0.31 C138.27 -0.54, 139 -1.38, 139.5 -1.96 M143.18 -0.09 C144.11 -1.16, 145.05 -2.24, 147.11 -4.62 M143.18 -0.09 C144.43 -1.53, 145.68 -2.97, 147.11 -4.62 M148.17 0.27 C148.76 -0.42, 149.36 -1.1, 150.79 -2.75 M148.17 0.27 C148.76 -0.41, 149.35 -1.1, 150.79 -2.75 M153.81 -0.12 C154.38 -0.78, 154.94 -1.43, 155.78 -2.39 M153.81 -0.12 C154.33 -0.73, 154.86 -1.33, 155.78 -2.39 M158.8 0.24 C159.18 -0.2, 159.56 -0.64, 160.11 -1.27 M158.8 0.24 C159.16 -0.18, 159.52 -0.59, 160.11 -1.27 M164.44 -0.16 C165.04 -0.85, 165.64 -1.54, 166.41 -2.42 M164.44 -0.16 C165.03 -0.83, 165.61 -1.51, 166.41 -2.42 M169.43 0.2 C171.41 -2.08, 173.39 -4.36, 175.99 -7.34 M169.43 0.2 C171.06 -1.68, 172.69 -3.56, 175.99 -7.34 M175.07 -0.19 C175.99 -1.26, 176.92 -2.32, 177.69 -3.21 M175.07 -0.19 C175.71 -0.94, 176.36 -1.68, 177.69 -3.21 M180.06 0.17 C180.5 -0.34, 180.94 -0.84, 181.37 -1.34 M180.06 0.17 C180.4 -0.23, 180.75 -0.63, 181.37 -1.34 M185.7 -0.23 C185.7 -0.23, 185.7 -0.23, 185.7 -0.23 M185.7 -0.23 C185.7 -0.23, 185.7 -0.23, 185.7 -0.23" stroke="#0f206f" stroke-width="0.5" fill="none"></path><path d="M0 0 C69.19 0, 138.39 0, 187.24 0 M0 0 C71.23 0, 142.46 0, 187.24 0 M187.24 0 C187.24 0, 187.24 0, 187.24 0 M187.24 0 C187.24 0, 187.24 0, 187.24 0 M187.24 0 C186.68 -0.13, 186.11 -0.27, 185.52 -0.41 M187.24 0 C186.76 -0.11, 186.28 -0.23, 185.52 -0.41 M185.52 -0.41 C184.89 -0.57, 184.26 -0.72, 183.52 -0.9 M185.52 -0.41 C184.77 -0.59, 184.03 -0.78, 183.52 -0.9 M183.52 -0.9 C182.99 -1.05, 182.46 -1.21, 181.44 -1.51 M183.52 -0.9 C182.9 -1.08, 182.28 -1.26, 181.44 -1.51 M181.44 -1.51 C180.7 -1.79, 179.96 -2.07, 179.44 -2.27 M181.44 -1.51 C180.92 -1.71, 180.4 -1.91, 179.44 -2.27 M179.44 -2.27 C178.82 -2.61, 178.21 -2.96, 177.7 -3.24 M179.44 -2.27 C178.82 -2.62, 178.19 -2.96, 177.7 -3.24 M177.7 -3.24 C177.42 -3.46, 177.15 -3.68, 176.98 -3.81 M177.7 -3.24 C177.47 -3.42, 177.24 -3.6, 176.98 -3.81 M176.98 -3.81 C176.86 -3.95, 176.73 -4.09, 176.39 -4.45 M176.98 -3.81 C176.78 -4.04, 176.57 -4.26, 176.39 -4.45 M176.39 -4.45 C176.23 -4.73, 176.06 -5, 175.96 -5.16 M176.39 -4.45 C176.27 -4.66, 176.14 -4.86, 175.96 -5.16 M175.96 -5.16 C175.88 -5.42, 175.79 -5.67, 175.7 -5.95 M175.96 -5.16 C175.9 -5.36, 175.83 -5.55, 175.7 -5.95 M175.7 -5.95 C175.68 -6.25, 175.66 -6.55, 175.64 -6.82 M175.7 -5.95 C175.68 -6.26, 175.66 -6.57, 175.64 -6.82 M175.64 -6.82 C175.69 -7.17, 175.75 -7.52, 175.79 -7.77 M175.64 -6.82 C175.67 -7.01, 175.7 -7.21, 175.79 -7.77 M175.79 -7.77 C175.36 -7.35, 174.93 -6.92, 174.29 -6.29 M175.79 -7.77 C175.47 -7.46, 175.15 -7.14, 174.29 -6.29 M174.29 -6.29 C173.74 -5.9, 173.2 -5.51, 172.57 -5.06 M174.29 -6.29 C173.85 -5.98, 173.41 -5.67, 172.57 -5.06 M172.57 -5.06 C171.87 -4.69, 171.18 -4.33, 170.68 -4.06 M172.57 -5.06 C172.18 -4.86, 171.79 -4.65, 170.68 -4.06 M170.68 -4.06 C169.96 -3.79, 169.25 -3.51, 168.64 -3.28 M170.68 -4.06 C170.26 -3.9, 169.84 -3.74, 168.64 -3.28 M168.64 -3.28 C167.8 -3.05, 166.95 -2.83, 166.5 -2.71 M168.64 -3.28 C167.8 -3.06, 166.97 -2.83, 166.5 -2.71 M166.5 -2.71 C165.76 -2.58, 165.02 -2.45, 164.3 -2.32 M166.5 -2.71 C165.73 -2.57, 164.95 -2.44, 164.3 -2.32 M164.3 -2.32 C163.56 -2.26, 162.83 -2.19, 162.05 -2.12 M164.3 -2.32 C163.69 -2.27, 163.09 -2.21, 162.05 -2.12 M162.05 -2.12 C161.29 -2.1, 160.53 -2.09, 159.8 -2.08 M162.05 -2.12 C161.23 -2.1, 160.4 -2.09, 159.8 -2.08 M159.8 -2.08 C159.01 -2.12, 158.21 -2.16, 157.59 -2.19 M159.8 -2.08 C159.23 -2.11, 158.66 -2.13, 157.59 -2.19 M157.59 -2.19 C156.92 -2.26, 156.25 -2.34, 155.45 -2.43 M157.59 -2.19 C156.74 -2.28, 155.88 -2.38, 155.45 -2.43 M155.45 -2.43 C154.96 -2.52, 154.47 -2.61, 153.41 -2.8 M155.45 -2.43 C155 -2.51, 154.56 -2.59, 153.41 -2.8 M153.41 -2.8 C153 -2.9, 152.58 -3.01, 151.51 -3.27 M153.41 -2.8 C152.69 -2.98, 151.96 -3.16, 151.51 -3.27 M151.51 -3.27 C150.89 -3.48, 150.28 -3.68, 149.78 -3.84 M151.51 -3.27 C150.94 -3.46, 150.38 -3.65, 149.78 -3.84 M149.78 -3.84 C149.32 -4.04, 148.87 -4.24, 148.26 -4.5 M149.78 -3.84 C149.29 -4.05, 148.8 -4.26, 148.26 -4.5 M148.26 -4.5 C147.95 -4.67, 147.65 -4.84, 146.99 -5.21 M148.26 -4.5 C148.01 -4.64, 147.75 -4.78, 146.99 -5.21 M146.99 -5.21 C146.78 -5.37, 146.57 -5.54, 145.99 -5.99 M146.99 -5.21 C146.77 -5.38, 146.56 -5.55, 145.99 -5.99 M145.99 -5.99 C145.84 -5.8, 145.69 -5.62, 145.45 -5.33 M145.99 -5.99 C145.78 -5.74, 145.58 -5.49, 145.45 -5.33 M145.45 -5.33 C145.26 -5.16, 145.07 -5, 144.78 -4.74 M145.45 -5.33 C145.23 -5.14, 145.01 -4.94, 144.78 -4.74 M144.78 -4.74 C144.11 -4.33, 143.44 -3.93, 143.07 -3.71 M144.78 -4.74 C144.37 -4.49, 143.95 -4.24, 143.07 -3.71 M143.07 -3.71 C142.54 -3.51, 142 -3.3, 140.95 -2.9 M143.07 -3.71 C142.41 -3.46, 141.75 -3.21, 140.95 -2.9 M140.95 -2.9 C140.08 -2.69, 139.2 -2.47, 138.48 -2.29 M140.95 -2.9 C140.25 -2.73, 139.56 -2.56, 138.48 -2.29 M138.48 -2.29 C137.51 -2.15, 136.54 -2, 135.75 -1.88 M138.48 -2.29 C137.68 -2.17, 136.87 -2.05, 135.75 -1.88 M135.75 -1.88 C134.94 -1.82, 134.12 -1.75, 132.83 -1.65 M135.75 -1.88 C135.06 -1.83, 134.37 -1.77, 132.83 -1.65 M132.83 -1.65 C132.17 -1.64, 131.51 -1.63, 129.79 -1.6 M132.83 -1.65 C131.65 -1.63, 130.48 -1.61, 129.79 -1.6 M129.79 -1.6 C128.78 -1.63, 127.76 -1.67, 126.71 -1.7 M129.79 -1.6 C128.67 -1.64, 127.54 -1.68, 126.71 -1.7 M126.71 -1.7 C125.63 -1.8, 124.54 -1.89, 123.67 -1.96 M126.71 -1.7 C125.56 -1.8, 124.42 -1.9, 123.67 -1.96 M123.67 -1.96 C123.05 -2.05, 122.42 -2.13, 120.74 -2.36 M123.67 -1.96 C122.61 -2.11, 121.55 -2.25, 120.74 -2.36 M120.74 -2.36 C119.93 -2.52, 119.12 -2.68, 117.99 -2.89 M120.74 -2.36 C120.09 -2.49, 119.45 -2.61, 117.99 -2.89 M117.99 -2.89 C117.29 -3.08, 116.59 -3.26, 115.5 -3.54 M117.99 -2.89 C117.39 -3.05, 116.78 -3.21, 115.5 -3.54 M115.5 -3.54 C114.99 -3.73, 114.47 -3.91, 113.36 -4.31 M115.5 -3.54 C115.06 -3.7, 114.62 -3.86, 113.36 -4.31 M113.36 -4.31 C112.95 -4.5, 112.55 -4.7, 111.62 -5.17 M113.36 -4.31 C112.9 -4.53, 112.44 -4.76, 111.62 -5.17 M111.62 -5.17 C111.36 -5.36, 111.11 -5.55, 110.37 -6.12 M111.62 -5.17 C111.22 -5.47, 110.82 -5.77, 110.37 -6.12 M110.37 -6.12 C110.28 -6.22, 110.19 -6.32, 109.95 -6.62 M110.37 -6.12 C110.2 -6.32, 110.03 -6.52, 109.95 -6.62 M109.95 -6.62 C109.87 -6.77, 109.79 -6.92, 109.68 -7.15 M109.95 -6.62 C109.87 -6.77, 109.79 -6.92, 109.68 -7.15 M109.68 -7.15 C109.29 -6.77, 108.9 -6.39, 108.35 -5.85 M109.68 -7.15 C109.33 -6.8, 108.97 -6.46, 108.35 -5.85 M108.35 -5.85 C107.73 -5.41, 107.12 -4.98, 106.75 -4.72 M108.35 -5.85 C107.73 -5.41, 107.11 -4.98, 106.75 -4.72 M106.75 -4.72 C106.33 -4.5, 105.92 -4.29, 104.91 -3.77 M106.75 -4.72 C106.02 -4.34, 105.3 -3.97, 104.91 -3.77 M104.91 -3.77 C104.32 -3.54, 103.72 -3.31, 102.89 -2.99 M104.91 -3.77 C104.12 -3.46, 103.33 -3.16, 102.89 -2.99 M102.89 -2.99 C102.27 -2.82, 101.65 -2.64, 100.71 -2.38 M102.89 -2.99 C102.09 -2.77, 101.3 -2.55, 100.71 -2.38 M100.71 -2.38 C100.23 -2.29, 99.76 -2.2, 98.41 -1.95 M100.71 -2.38 C100.13 -2.27, 99.56 -2.17, 98.41 -1.95 M98.41 -1.95 C97.48 -1.85, 96.55 -1.74, 96.03 -1.69 M98.41 -1.95 C97.77 -1.88, 97.13 -1.81, 96.03 -1.69 M96.03 -1.69 C95.55 -1.67, 95.06 -1.65, 93.62 -1.6 M96.03 -1.69 C95.11 -1.65, 94.18 -1.62, 93.62 -1.6 M93.62 -1.6 C93.09 -1.62, 92.57 -1.64, 91.21 -1.69 M93.62 -1.6 C93.05 -1.62, 92.48 -1.64, 91.21 -1.69 M91.21 -1.69 C90.35 -1.78, 89.5 -1.87, 88.83 -1.95 M91.21 -1.69 C90.73 -1.74, 90.25 -1.79, 88.83 -1.95 M88.83 -1.95 C88.19 -2.07, 87.56 -2.19, 86.53 -2.38 M88.83 -1.95 C88.08 -2.09, 87.33 -2.23, 86.53 -2.38 M86.53 -2.38 C85.97 -2.54, 85.41 -2.69, 84.35 -2.99 M86.53 -2.38 C85.69 -2.62, 84.84 -2.85, 84.35 -2.99 M84.35 -2.99 C83.89 -3.17, 83.42 -3.34, 82.32 -3.77 M84.35 -2.99 C83.89 -3.17, 83.43 -3.34, 82.32 -3.77 M82.32 -3.77 C81.84 -4.02, 81.36 -4.27, 80.49 -4.72 M82.32 -3.77 C81.94 -3.97, 81.56 -4.17, 80.49 -4.72 M80.49 -4.72 C79.88 -5.15, 79.28 -5.57, 78.89 -5.85 M80.49 -4.72 C79.92 -5.12, 79.35 -5.52, 78.89 -5.85 M78.89 -5.85 C78.57 -6.16, 78.24 -6.48, 77.56 -7.15 M78.89 -5.85 C78.61 -6.12, 78.33 -6.39, 77.56 -7.15 M77.56 -7.15 C77.46 -6.95, 77.36 -6.75, 77.29 -6.62 M77.56 -7.15 C77.46 -6.96, 77.37 -6.77, 77.29 -6.62 M77.29 -6.62 C77.18 -6.49, 77.07 -6.36, 76.87 -6.12 M77.29 -6.62 C77.16 -6.46, 77.03 -6.3, 76.87 -6.12 M76.87 -6.12 C76.47 -5.81, 76.06 -5.5, 75.62 -5.17 M76.87 -6.12 C76.6 -5.91, 76.32 -5.7, 75.62 -5.17 M75.62 -5.17 C75.16 -4.94, 74.69 -4.71, 73.88 -4.31 M75.62 -5.17 C75.05 -4.88, 74.47 -4.6, 73.88 -4.31 M73.88 -4.31 C73.34 -4.11, 72.79 -3.92, 71.73 -3.54 M73.88 -4.31 C73.15 -4.05, 72.43 -3.79, 71.73 -3.54 M71.73 -3.54 C71.19 -3.4, 70.66 -3.26, 69.25 -2.89 M71.73 -3.54 C71.14 -3.39, 70.55 -3.24, 69.25 -2.89 M69.25 -2.89 C68.54 -2.76, 67.83 -2.62, 66.5 -2.36 M69.25 -2.89 C68.55 -2.76, 67.86 -2.62, 66.5 -2.36 M66.5 -2.36 C65.46 -2.22, 64.42 -2.08, 63.57 -1.96 M66.5 -2.36 C65.61 -2.24, 64.73 -2.12, 63.57 -1.96 M63.57 -1.96 C62.46 -1.87, 61.34 -1.77, 60.52 -1.7 M63.57 -1.96 C62.56 -1.88, 61.56 -1.79, 60.52 -1.7 M60.52 -1.7 C59.52 -1.67, 58.52 -1.63, 57.44 -1.6 M60.52 -1.7 C59.4 -1.67, 58.27 -1.63, 57.44 -1.6 M57.44 -1.6 C56.67 -1.61, 55.9 -1.63, 54.41 -1.65 M57.44 -1.6 C56.64 -1.61, 55.84 -1.63, 54.41 -1.65 M54.41 -1.65 C53.64 -1.71, 52.87 -1.77, 51.48 -1.88 M54.41 -1.65 C53.37 -1.73, 52.34 -1.82, 51.48 -1.88 M51.48 -1.88 C50.53 -2.03, 49.58 -2.17, 48.75 -2.29 M51.48 -1.88 C50.44 -2.04, 49.39 -2.2, 48.75 -2.29 M48.75 -2.29 C48.01 -2.48, 47.26 -2.66, 46.29 -2.9 M48.75 -2.29 C47.84 -2.52, 46.93 -2.74, 46.29 -2.9 M46.29 -2.9 C45.62 -3.15, 44.96 -3.41, 44.17 -3.71 M46.29 -2.9 C45.56 -3.18, 44.84 -3.45, 44.17 -3.71 M44.17 -3.71 C43.7 -3.99, 43.24 -4.27, 42.46 -4.74 M44.17 -3.71 C43.5 -4.11, 42.82 -4.52, 42.46 -4.74 M42.46 -4.74 C42.21 -4.95, 41.97 -5.17, 41.79 -5.33 M42.46 -4.74 C42.31 -4.87, 42.16 -5, 41.79 -5.33 M41.79 -5.33 C41.58 -5.59, 41.36 -5.85, 41.25 -5.99 M41.79 -5.33 C41.58 -5.59, 41.37 -5.84, 41.25 -5.99 M41.25 -5.99 C40.89 -5.71, 40.53 -5.43, 40.25 -5.21 M41.25 -5.99 C41 -5.8, 40.76 -5.61, 40.25 -5.21 M40.25 -5.21 C39.76 -4.94, 39.27 -4.66, 38.97 -4.5 M40.25 -5.21 C39.74 -4.93, 39.24 -4.64, 38.97 -4.5 M38.97 -4.5 C38.52 -4.3, 38.06 -4.1, 37.46 -3.85 M38.97 -4.5 C38.6 -4.33, 38.22 -4.17, 37.46 -3.85 M37.46 -3.85 C36.83 -3.64, 36.21 -3.43, 35.73 -3.27 M37.46 -3.85 C37.04 -3.71, 36.62 -3.57, 35.73 -3.27 M35.73 -3.27 C35.27 -3.16, 34.82 -3.05, 33.83 -2.8 M35.73 -3.27 C35.33 -3.18, 34.94 -3.08, 33.83 -2.8 M33.83 -2.8 C33.15 -2.68, 32.47 -2.55, 31.79 -2.43 M33.83 -2.8 C33.38 -2.72, 32.93 -2.64, 31.79 -2.43 M31.79 -2.43 C31 -2.34, 30.21 -2.25, 29.65 -2.19 M31.79 -2.43 C31.08 -2.35, 30.37 -2.27, 29.65 -2.19 M29.65 -2.19 C28.98 -2.15, 28.31 -2.12, 27.43 -2.08 M29.65 -2.19 C29.16 -2.16, 28.68 -2.14, 27.43 -2.08 M27.43 -2.08 C26.7 -2.09, 25.97 -2.1, 25.19 -2.12 M27.43 -2.08 C26.66 -2.09, 25.88 -2.11, 25.19 -2.12 M25.19 -2.12 C24.36 -2.19, 23.52 -2.27, 22.94 -2.32 M25.19 -2.12 C24.3 -2.2, 23.42 -2.28, 22.94 -2.32 M22.94 -2.32 C22.28 -2.44, 21.61 -2.55, 20.73 -2.71 M22.94 -2.32 C22.46 -2.41, 21.98 -2.49, 20.73 -2.71 M20.73 -2.71 C20.24 -2.84, 19.74 -2.97, 18.59 -3.28 M20.73 -2.71 C20.12 -2.87, 19.5 -3.04, 18.59 -3.28 M18.59 -3.28 C17.94 -3.53, 17.29 -3.78, 16.56 -4.06 M18.59 -3.28 C18.11 -3.47, 17.62 -3.66, 16.56 -4.06 M16.56 -4.06 C16.04 -4.34, 15.51 -4.62, 14.67 -5.06 M16.56 -4.06 C15.95 -4.38, 15.35 -4.7, 14.67 -5.06 M14.67 -5.06 C14.05 -5.51, 13.42 -5.96, 12.95 -6.29 M14.67 -5.06 C14.09 -5.47, 13.52 -5.89, 12.95 -6.29 M12.95 -6.29 C12.51 -6.73, 12.07 -7.16, 11.45 -7.77 M12.95 -6.29 C12.51 -6.73, 12.07 -7.16, 11.45 -7.77 M11.45 -7.77 C11.48 -7.54, 11.52 -7.3, 11.6 -6.82 M11.45 -7.77 C11.5 -7.43, 11.56 -7.1, 11.6 -6.82 M11.6 -6.82 C11.58 -6.5, 11.56 -6.19, 11.54 -5.95 M11.6 -6.82 C11.58 -6.57, 11.57 -6.33, 11.54 -5.95 M11.54 -5.95 C11.45 -5.68, 11.36 -5.42, 11.28 -5.16 M11.54 -5.95 C11.44 -5.65, 11.34 -5.35, 11.28 -5.16 M11.28 -5.16 C11.12 -4.91, 10.97 -4.66, 10.84 -4.45 M11.28 -5.16 C11.13 -4.91, 10.98 -4.67, 10.84 -4.45 M10.84 -4.45 C10.7 -4.29, 10.55 -4.13, 10.26 -3.81 M10.84 -4.45 C10.71 -4.31, 10.58 -4.17, 10.26 -3.81 M10.26 -3.81 C10.08 -3.67, 9.9 -3.53, 9.54 -3.24 M10.26 -3.81 C10.09 -3.68, 9.93 -3.55, 9.54 -3.24 M9.54 -3.24 C8.95 -2.91, 8.36 -2.58, 7.8 -2.27 M9.54 -3.24 C8.97 -2.92, 8.41 -2.61, 7.8 -2.27 M7.8 -2.27 C7.39 -2.11, 6.98 -1.96, 5.8 -1.5 M7.8 -2.27 C7.31 -2.08, 6.81 -1.89, 5.8 -1.5 M5.8 -1.5 C5.37 -1.38, 4.94 -1.25, 3.71 -0.9 M5.8 -1.5 C5.26 -1.35, 4.73 -1.19, 3.71 -0.9 M3.71 -0.9 C3.13 -0.76, 2.55 -0.61, 1.72 -0.41 M3.71 -0.9 C2.93 -0.71, 2.14 -0.51, 1.72 -0.41 M1.72 -0.41 C1.38 -0.33, 1.03 -0.25, 0 0 M1.72 -0.41 C1.35 -0.32, 0.97 -0.23, 0 0 M0 0 C0 0, 0 0, 0 0 M0 0 C0 0, 0 0, 0 0" stroke="#0f206f" stroke-width="1" fill="none"></path></g></g><mask></mask><g stroke-linecap="round"><g transform="translate(961.8534492893668 207.62480643560306) rotate(0 138.05171694213084 -67.90922424017941)"><path d="M-0.53 -1.05 C45.46 -23.94, 230.4 -114.26, 276.64 -136.82 M1.39 1.01 C47.19 -21.73, 230 -112.64, 275.84 -135.31" stroke="#000000" stroke-width="1" fill="none"></path></g><g transform="translate(961.8534492893668 207.62480643560306) rotate(0 138.05171694213084 -67.90922424017941)"><path d="M0.51 0.13 L8.52 -13.35 L16.21 -0.19 L-2.4 0.08" stroke="none" stroke-width="0" fill="#000000" fill-rule="evenodd"></path><path d="M-1.85 -0.69 C2.72 -4.49, 6.53 -9.92, 9.84 -13.27 M0.16 -0.38 C3.33 -5.86, 5.63 -9.99, 8.47 -12.39 M8.49 -13.4 C10.98 -9.49, 12.18 -7.95, 14.14 -1.46 M9.44 -12.61 C9.71 -10.8, 11.4 -8.46, 14.91 -1.81 M13.54 -2.31 C8.87 -1.4, 2.63 0.04, -0.22 -0.65 M14.5 -0.65 C9.03 -1.38, 3.01 -1.65, -0.33 -0.88 M-0.53 -1.05 C-0.53 -1.05, -0.53 -1.05, -0.53 -1.05 M-0.53 -1.05 C-0.53 -1.05, -0.53 -1.05, -0.53 -1.05" stroke="#000000" stroke-width="1" fill="none"></path></g></g><mask></mask><g stroke-linecap="round" transform="translate(484.25078252125536 108.44118782526911) rotate(0 211.0556640625 22.5)"><path d="M0.35 -0.94 C90.27 2.41, 178.47 2.58, 422.04 0.98 M0.09 -0.27 C158.75 1.13, 317.6 0.27, 421.76 0.09 M422.7 -0.64 C424.34 9.81, 421.63 20.29, 423.73 43.97 M421.98 0.44 C422.83 11.52, 422.17 22.81, 421.63 44.47 M421.1 45.98 C284.16 46.18, 145.88 47.07, -0.55 45.52 M422.19 44.99 C294.25 42.71, 166.37 43.56, 0.07 45.37 M-1.3 45.98 C1.16 34.3, -0.6 19.18, -0.04 1 M-0.68 45.95 C-0.85 28.21, -0.86 9.52, -0.36 0.1" stroke="#0f206f" stroke-width="1" fill="none"></path></g><g transform="translate(489.25078252125536 118.44118782526911) rotate(0 77.5 12.5)"><text x="0" y="18" font-family="Virgil, Segoe UI Emoji" font-size="20px" fill="#0f206f" text-anchor="start" style="white-space: pre;" direction="ltr">FROM alpine:3.9</text></g><g stroke-linecap="round" transform="translate(485.04179814625536 173.5458478594488) rotate(0 211.0556640625 17.5)"><path d="M0.59 -0.86 C88.64 -1.57, 176.72 -2.34, 422.29 -0.21 M-0.36 0.12 C157.52 0.95, 315.77 0.48, 422.1 -0.1 M422.1 -0.78 C420.38 6.26, 423.35 16.01, 422.5 36.15 M422.96 0.06 C422.08 12.1, 422.56 25.84, 421.96 34.6 M422.13 35.18 C334.48 34.76, 247.6 36.3, -0.57 36.01 M421.96 34.82 C256.72 37.23, 90.95 37.24, -0.03 34.67 M1.15 35.6 C-0.43 22.19, 1.89 8.41, -0.92 0.9 M-0.42 35.78 C0.52 22.09, 0.67 9.32, 0.26 0.56" stroke="#0f206f" stroke-width="1" fill="none"></path></g><g transform="translate(490.04179814625536 178.5458478594488) rotate(0 138 12.5)"><text x="0" y="18" font-family="Virgil, Segoe UI Emoji" font-size="20px" fill="#0f206f" text-anchor="start" style="white-space: pre;" direction="ltr">RUN apk add nginx=1.14.2-r4</text></g><g stroke-linecap="round" transform="translate(486.04179814625536 237.5458478594488) rotate(0 211.0556640625 17.5)"><path d="M0.18 -0.21 C150.2 0.58, 298.49 -0.3, 422.36 -0.58 M-0.01 -0.1 C143.71 0.54, 288.23 1.05, 421.91 -0.37 M422.5 1.15 C423.86 7.27, 421.79 16.72, 422.22 35.03 M421.96 -0.4 C421.34 7.4, 422.63 14.22, 422.28 34.2 M421.54 36.01 C337.22 36.83, 251.24 35.78, -0.36 35.62 M422.08 34.67 C264.77 36.6, 106.23 36.99, 0.16 34.87 M-0.92 35.9 C1 24.12, -1.44 10.02, 1.56 1.47 M0.26 35.56 C-0.89 24.38, -1.16 14, -0.66 0.61" stroke="#0f206f" stroke-width="1" fill="none"></path></g><g transform="translate(491.04179814625536 242.5458478594488) rotate(0 187 12.5)"><text x="0" y="18" font-family="Virgil, Segoe UI Emoji" font-size="20px" fill="#0f206f" text-anchor="start" style="white-space: pre;" direction="ltr">RUN chown -R nginx /var/lib/nginx/logs</text></g><g stroke-linecap="round" transform="translate(488.04179814625536 302.5458478594488) rotate(0 211.0556640625 17.5)"><path d="M0.25 -0.58 C133.62 1.78, 265.87 1.49, 421.91 -0.77 M-0.21 -0.37 C84.68 0.43, 170.28 0.11, 422.42 0.39 M422.22 0.03 C420.06 11.06, 421.4 19.88, 421.3 33.11 M422.28 -0.8 C421.27 10.67, 422.72 22.55, 423.07 35.93 M421.75 35.62 C266.49 34.86, 110.1 34.3, -0.67 35.97 M422.27 34.87 C302.52 36.77, 182.68 36.04, 0.24 35.35 M1.56 36.47 C-0.01 24.17, 0.08 10.34, 1.13 -1.16 M-0.66 35.61 C1.23 25.29, 1.11 18.29, -0.31 -0.65" stroke="#0f206f" stroke-width="1" fill="none"></path></g><g transform="translate(493.04179814625536 307.5458478594488) rotate(0 179 12.5)"><text x="0" y="18" font-family="Virgil, Segoe UI Emoji" font-size="20px" fill="#0f206f" text-anchor="start" style="white-space: pre;" direction="ltr">COPY nginx.conf /etc/nginx/nginx.conf</text></g><g stroke-linecap="round" transform="translate(487.16643193531786 365.5458478594488) rotate(0 211.0556640625 22.5)"><path d="M-0.2 -0.77 C136.5 0.13, 275.08 -0.38, 421.37 -0.91 M0.3 0.39 C160.01 -0.6, 320.6 -0.41, 422.12 -0.51 M421.3 -1.89 C422.57 16.4, 422.01 31.72, 420.52 43.07 M423.07 0.93 C423.03 10.37, 422.04 18.75, 422.7 45.74 M421.44 45.97 C275.47 44.42, 129.78 45.18, -0.26 45.48 M422.35 45.35 C257.13 43.68, 91.29 44.39, 0.39 44.95 M1.13 43.84 C-0.92 25.84, -1.39 8.77, 1.22 1.87 M-0.31 44.35 C-1.32 35.52, -1.34 26.21, -0.67 0.2" stroke="#0f206f" stroke-width="1" fill="none"></path></g><g transform="translate(689.7220959978179 375.5458478594488) rotate(0 8.5 12.5)"><text x="8.5" y="18" font-family="Virgil, Segoe UI Emoji" font-size="20px" fill="#0f206f" text-anchor="middle" style="white-space: pre;" direction="ltr">...</text></g><g stroke-linecap="round" transform="translate(489.04179814625536 430.5458478594488) rotate(0 211.0556640625 17.5)"><path d="M-0.74 -0.91 C131.32 0.91, 261.17 1.48, 422.89 -0.12 M0.01 -0.51 C114.24 -0.29, 227.87 -0.34, 421.61 0.16 M420.52 -1.93 C420.36 12.7, 421.04 25.37, 423.96 36.41 M422.7 0.74 C422.48 14.13, 421.95 26.12, 423.03 34.84 M421.85 35.48 C313.7 36.11, 202.85 36.15, 0.7 35.63 M422.5 34.95 C319.55 36.71, 216.2 37.04, -0.31 34.75 M1.22 36.87 C-1.49 29.1, 2.2 19.33, -1.3 -1.91 M-0.67 35.2 C-0.54 25.06, 0.3 12.36, -0.32 0.87" stroke="#0f206f" stroke-width="1" fill="none"></path></g><g transform="translate(494.04179814625536 435.5458478594488) rotate(0 160.5 12.5)"><text x="0" y="18" font-family="Virgil, Segoe UI Emoji" font-size="20px" fill="#0f206f" text-anchor="start" style="white-space: pre;" direction="ltr">CMD ["nginx", "-g", "daemon off;"]</text></g><g transform="translate(1069.1434638644266 98.81215099421402) rotate(332.502907934774 25 18)"><text x="0" y="25" font-family="Virgil, Segoe UI Emoji" font-size="28px" fill="#495057" text-anchor="start" style="white-space: pre;" direction="ltr">Pull</text></g><g transform="translate(1091.5203293204686 252.56816428901195) rotate(20.048494995200063 32 18)"><text x="0" y="25" font-family="Virgil, Segoe UI Emoji" font-size="28px" fill="#495057" text-anchor="start" style="white-space: pre;" direction="ltr">Push</text></g><g stroke-linecap="round"><g transform="translate(478.0034250216745 132.91805550105036) rotate(0 -70.16544639107775 0.8622036537714166)"><path d="M1.14 0.35 C-22.44 0.34, -116.89 0.85, -140.59 1.06 M0.29 -0.51 C-23.53 0.13, -117.76 1.68, -141.47 2.24" stroke="#495057" stroke-width="1" fill="none"></path></g><g transform="translate(478.0034250216745 132.91805550105036) rotate(0 -70.16544639107775 0.8622036537714166)"><path d="M-139.88 2.7 L-126.41 -6.35 L-126.02 9.04 L-140.08 0.64" stroke="none" stroke-width="0" fill="#495057" fill-rule="evenodd"></path><path d="M-141.04 2.38 C-137.31 -0.83, -131.56 -3.87, -128.76 -3.55 M-141.43 1.57 C-138.23 0.19, -136.15 0.11, -128.13 -4.4 M-127.25 -3.43 C-127.85 -0.43, -126.81 2.2, -127.87 7.54 M-127.92 -3.99 C-128.37 -0.69, -128.02 1.47, -127.85 8.58 M-127.65 7.27 C-131.88 6.61, -133.87 4.78, -141.62 2.07 M-128.43 8.27 C-131.27 7.25, -134.62 5.56, -141.55 2.78 M-141.47 2.24 C-141.47 2.24, -141.47 2.24, -141.47 2.24 M-141.47 2.24 C-141.47 2.24, -141.47 2.24, -141.47 2.24" stroke="#495057" stroke-width="1" fill="none"></path></g></g><mask></mask><g transform="translate(61.39043095875536 121.74831673151911) rotate(0 117.5 12.5)"><text x="0" y="18" font-family="Virgil, Segoe UI Emoji" font-size="20px" fill="#e5004e" text-anchor="start" style="white-space: pre;" direction="ltr">Trusted based Image ?</text></g><g stroke-linecap="round"><g transform="translate(473.743896484375 194.49337717224714) rotate(0 -68.57727764086798 1.6359719479084731)"><path d="M-0.38 0.63 C-23.48 1.09, -114.71 2.99, -137.73 3.36 M1.62 -0.09 C-21.73 0.02, -115.82 1.67, -138.77 1.81" stroke="#495057" stroke-width="1" fill="none"></path></g><g transform="translate(473.743896484375 194.49337717224714) rotate(0 -68.57727764086798 1.6359719479084731)"><path d="M-137.99 3.01 L-126.94 -6.51 L-126.75 8.91 L-138.33 0.36" stroke="none" stroke-width="0" fill="#495057" fill-rule="evenodd"></path><path d="M-137.99 1.6 C-132.42 -1.75, -128.09 -2.24, -126.58 -4.48 M-139.31 2.35 C-135.13 0.78, -132.29 -1.8, -125.01 -4.48 M-125.83 -4.13 C-124.74 0.04, -125.11 4.48, -124.89 6.97 M-124.87 -4.69 C-125.01 -0.46, -125.11 4.71, -124.72 8.02 M-126.01 7.55 C-126.62 5.36, -129.69 5.14, -138.56 2.98 M-124.87 8 C-127.83 7.08, -131.4 6.27, -138.77 2.38 M-138.77 1.81 C-138.77 1.81, -138.77 1.81, -138.77 1.81 M-138.77 1.81 C-138.77 1.81, -138.77 1.81, -138.77 1.81" stroke="#495057" stroke-width="1" fill="none"></path></g></g><mask></mask><g transform="translate(10 183.69723030573786) rotate(0 159.5 12.5)"><text x="0" y="18" font-family="Virgil, Segoe UI Emoji" font-size="20px" fill="#e5004e" text-anchor="start" style="white-space: pre;" direction="ltr">Trusted packaged installation ?</text></g><g stroke-linecap="round"><g transform="translate(478.6284240680002 258.61843391901914) rotate(0 -70.47374514602126 0.43437189740129156)"><path d="M0.52 -0.98 C-22.9 -0.76, -117.85 0.49, -141.47 0.81 M-0.67 1.12 C-23.61 1.5, -115.57 1.73, -139.15 1.85" stroke="#495057" stroke-width="1" fill="none"></path></g><g transform="translate(478.6284240680002 258.61843391901914) rotate(0 -70.47374514602126 0.43437189740129156)"><path d="M-140.78 0.21 L-124.12 -3.75 L-125.05 9.45 L-140.06 3.78" stroke="none" stroke-width="0" fill="#495057" fill-rule="evenodd"></path><path d="M-140.38 0.9 C-137.35 -0.18, -134.23 -0.41, -125.63 -3.98 M-138.85 2.22 C-136.06 -0.09, -133.43 -1.22, -126.33 -4.15 M-124.56 -5.11 C-126.06 0.48, -124.72 5.12, -126.79 7.45 M-125.63 -4.07 C-125.29 -1.43, -126.13 2.05, -125.94 7.65 M-124.54 8.56 C-128.3 6.51, -133.29 6.24, -138.55 2.4 M-126.26 8.01 C-130.85 5.08, -136.13 3.6, -138.78 1.42 M-139.15 1.85 C-139.15 1.85, -139.15 1.85, -139.15 1.85 M-139.15 1.85 C-139.15 1.85, -139.15 1.85, -139.15 1.85" stroke="#495057" stroke-width="1" fill="none"></path></g></g><mask></mask><g transform="translate(57.214599609375 251.4995374346441) rotate(0 127 12.5)"><text x="0" y="18" font-family="Virgil, Segoe UI Emoji" font-size="20px" fill="#e5004e" text-anchor="start" style="white-space: pre;" direction="ltr">Trusted shell commands ?</text></g><g stroke-linecap="round"><g transform="translate(478.341064453125 322.4041394854254) rotate(0 -69.75483805002642 0.22838072808457355)"><path d="M-0.91 -0.29 C-24.25 0.02, -116.45 0.7, -139.83 0.87 M0.81 -1.48 C-22.62 -0.97, -116.49 1.45, -140.32 1.94" stroke="#495057" stroke-width="1" fill="none"></path></g><g transform="translate(478.341064453125 322.4041394854254) rotate(0 -69.75483805002642 0.22838072808457355)"><path d="M-139.47 0.47 L-127.76 -2.87 L-124.59 6.74 L-139.98 0.35" stroke="none" stroke-width="0" fill="#495057" fill-rule="evenodd"></path><path d="M-140.67 3.04 C-137.15 -0.61, -133.13 -1.12, -126.22 -4.25 M-140.52 2.27 C-135.68 -0.82, -130.89 -2.55, -126.78 -5.06 M-126.12 -5.17 C-127.83 -2.5, -127.37 0.67, -126.37 7.07 M-126.92 -5.18 C-126.99 0.28, -126.99 4.67, -126.81 8.25 M-127.4 7.05 C-128.62 5.35, -132.38 4.61, -140.32 2.25 M-126.22 7.58 C-129.81 6.78, -135.19 4.69, -139.74 1.21 M-140.32 1.94 C-140.32 1.94, -140.32 1.94, -140.32 1.94 M-140.32 1.94 C-140.32 1.94, -140.32 1.94, -140.32 1.94" stroke="#495057" stroke-width="1" fill="none"></path></g></g><mask></mask><g transform="translate(112.50390625 314.0763806963629) rotate(0 77 12.5)"><text x="0" y="18" font-family="Virgil, Segoe UI Emoji" font-size="20px" fill="#e5004e" text-anchor="start" style="white-space: pre;" direction="ltr">Trusted Files ?</text></g><g stroke-linecap="round"><g transform="translate(478.8637649493478 389.4141492510504) rotate(0 -70.8566604160983 1.484481595475188)"><path d="M0.28 0.48 C-23.13 0.92, -117.51 1.68, -140.93 1.75 M-1.03 -0.31 C-24.59 0.41, -118.71 2.93, -142 3.28" stroke="#495057" stroke-width="1" fill="none"></path></g><g transform="translate(478.8637649493478 389.4141492510504) rotate(0 -70.8566604160983 1.484481595475188)"><path d="M-142.51 2.92 L-127.32 -2.64 L-129.76 8.22 L-142.28 2.73" stroke="none" stroke-width="0" fill="#495057" fill-rule="evenodd"></path><path d="M-141.4 3 C-138.39 2.07, -135.88 -0.97, -127.91 -2.9 M-141.47 3.4 C-136.01 1.21, -130.8 -1.8, -128.23 -3.91 M-129.31 -3.14 C-129.36 0.1, -127.4 2.61, -127.51 8.68 M-128.82 -3.24 C-128.44 -0.44, -129.1 2.75, -128.31 8.84 M-126.89 10.78 C-132.16 8.71, -136.63 6.06, -143.07 4.06 M-127.67 8.63 C-132.79 7.59, -135.44 5.98, -142.67 3.76 M-142 3.28 C-142 3.28, -142 3.28, -142 3.28 M-142 3.28 C-142 3.28, -142 3.28, -142 3.28" stroke="#495057" stroke-width="1" fill="none"></path></g></g><mask></mask><g transform="translate(43.3336181640625 378.24441048151914) rotate(0 142 12.5)"><text x="0" y="18" font-family="Virgil, Segoe UI Emoji" font-size="20px" fill="#e5004e" text-anchor="start" style="white-space: pre;" direction="ltr">Other trusted instructions ?</text></g><g stroke-linecap="round"><g transform="translate(479.16537499001254 450.0994519854254) rotate(0 -70.80029186271133 0.36131629439069)"><path d="M-0.02 -0.14 C-23.45 -0.15, -118.16 0.56, -141.58 0.89 M-1.49 -1.25 C-24.46 -1.22, -116.04 1.23, -139.33 1.98" stroke="#495057" stroke-width="1" fill="none"></path></g><g transform="translate(479.16537499001254 450.0994519854254) rotate(0 -70.80029186271133 0.36131629439069)"><path d="M-140.13 1.13 L-124.5 -4.51 L-126.99 8.17 L-139.1 3.1" stroke="none" stroke-width="0" fill="#495057" fill-rule="evenodd"></path><path d="M-139.5 0.88 C-137.54 0.71, -133.41 -0.41, -127.2 -4.23 M-138.91 1.68 C-136.04 0.45, -132.87 -2.06, -125.78 -5.3 M-125.4 -3.76 C-124.71 -1.46, -124.66 4.44, -126.44 6.73 M-125.47 -4.77 C-126.41 -1.14, -125.12 3.51, -125.92 7.76 M-126.76 9.29 C-129.69 7, -132.15 4.16, -139.49 2.37 M-125.93 8.07 C-129.59 6.3, -133.82 4.43, -138.6 2.42 M-139.33 1.98 C-139.33 1.98, -139.33 1.98, -139.33 1.98 M-139.33 1.98 C-139.33 1.98, -139.33 1.98, -139.33 1.98" stroke="#495057" stroke-width="1" fill="none"></path></g></g><mask></mask><g transform="translate(37.79345703125 438.0844373369879) rotate(0 146 12.5)"><text x="0" y="18" font-family="Virgil, Segoe UI Emoji" font-size="20px" fill="#e5004e" text-anchor="start" style="white-space: pre;" direction="ltr">Trusted command execution ?</text></g></svg>